<svg xmlns="http://www.w3.org/2000/svg" xmlns:xlink="http://www.w3.org/1999/xlink" width="1920" zoomAndPan="magnify" viewBox="0 0 1440 809.999993" height="1080" preserveAspectRatio="xMidYMid meet" version="1.0"><defs><clipPath id="7afaf21fa9"><path d="M 714.429688 152.496094 L 911.679688 152.496094 L 911.679688 387.996094 L 714.429688 387.996094 Z M 714.429688 152.496094 " clip-rule="nonzero"/></clipPath><clipPath id="efe74c8ee0"><path d="M 535 152.496094 L 743 152.496094 L 743 387 L 535 387 Z M 535 152.496094 " clip-rule="nonzero"/></clipPath><clipPath id="7ae1d1a5af"><path d="M 344.789062 423.910156 L 551.789062 423.910156 L 551.789062 657.160156 L 344.789062 657.160156 Z M 344.789062 423.910156 " clip-rule="nonzero"/></clipPath><clipPath id="6bf0701f04"><path d="M 525 423.910156 L 804.59375 423.910156 L 804.59375 657.160156 L 525 657.160156 Z M 525 423.910156 " clip-rule="nonzero"/></clipPath><clipPath id="9b28080866"><path d="M 172 421.78125 L 374 421.78125 L 374 655 L 172 655 Z M 172 421.78125 " clip-rule="nonzero"/></clipPath><clipPath id="6ec5e6823f"><path d="M 1060.796875 421.78125 L 1268.546875 421.78125 L 1268.546875 656.53125 L 1060.796875 656.53125 Z M 1060.796875 421.78125 " clip-rule="nonzero"/></clipPath><clipPath id="c1b8b16cb8"><path d="M 938.0625 421.78125 L 1145 421.78125 L 1145 655.03125 L 938.0625 655.03125 Z M 938.0625 421.78125 " clip-rule="nonzero"/></clipPath><clipPath id="537fe1dc79"><path d="M 771.738281 422.207031 L 976.488281 422.207031 L 976.488281 657.707031 L 771.738281 657.707031 Z M 771.738281 422.207031 " clip-rule="nonzero"/></clipPath></defs><g clip-path="url(#7afaf21fa9)"><path fill="#c2083d" d="M 808.558594 387.960938 C 739.164062 387.960938 714.429688 322.886719 714.429688 261.996094 C 714.429688 194.480469 754.660156 152.53125 819.421875 152.53125 C 879.765625 152.53125 911.679688 194.78125 911.679688 274.730469 C 911.660156 376.917969 839.554688 387.960938 808.558594 387.960938 Z M 816.996094 228.765625 C 808.980469 228.765625 797.046875 238.121094 797.046875 263.886719 C 797.0625 272.90625 799.222656 298.492188 808.980469 308.28125 C 811.371094 310.671875 813.847656 311.742188 816.996094 311.742188 C 821.0625 311.742188 824.007812 310.554688 826.566406 307.863281 C 832.992188 301.117188 836.238281 284.855469 835.253906 264.355469 C 833.664062 231.328125 820.878906 228.765625 816.996094 228.765625 Z M 816.996094 228.765625 " fill-opacity="1" fill-rule="nonzero"/></g><path fill="#cf0942" d="M 808.558594 384.796875 C 741.488281 384.796875 717.589844 321.363281 717.589844 261.996094 C 717.574219 196.421875 756.601562 155.679688 819.421875 155.679688 C 877.707031 155.679688 908.515625 196.839844 908.515625 274.730469 C 908.515625 374.074219 838.617188 384.796875 808.558594 384.796875 Z M 816.996094 225.605469 C 807.707031 225.605469 793.882812 235.792969 793.882812 263.871094 C 793.882812 264.207031 794 297.703125 806.738281 310.488281 C 809.730469 313.484375 812.976562 314.871094 816.976562 314.871094 C 821.914062 314.871094 825.679688 313.332031 828.84375 310.019531 C 835.953125 302.558594 839.453125 285.839844 838.398438 264.1875 C 836.675781 228.382812 821.578125 225.605469 816.996094 225.605469 Z M 816.996094 225.605469 " fill-opacity="1" fill-rule="nonzero"/><path fill="#e10c49" d="M 808.558594 381.652344 C 743.816406 381.652344 720.738281 319.84375 720.738281 262.015625 C 720.738281 198.378906 758.558594 158.859375 819.421875 158.859375 C 875.648438 158.859375 905.371094 198.933594 905.371094 274.746094 C 905.351562 371.226562 837.660156 381.652344 808.558594 381.652344 Z M 816.996094 222.457031 C 806.433594 222.457031 790.738281 233.484375 790.738281 263.871094 C 790.738281 264.222656 790.804688 298.960938 804.511719 312.714844 C 808.074219 316.292969 812.160156 318.035156 816.996094 318.035156 C 822.769531 318.035156 827.386719 316.128906 831.136719 312.195312 C 841.695312 301.117188 842.195312 277.257812 841.5625 264.023438 C 839.703125 225.453125 822.28125 222.457031 816.996094 222.457031 Z M 816.996094 222.457031 " fill-opacity="1" fill-rule="nonzero"/><path fill="#eb104f" d="M 819.421875 161.988281 C 762.105469 161.988281 723.898438 198.3125 723.898438 261.996094 C 723.898438 324.175781 749.371094 378.488281 808.558594 378.488281 C 851.265625 378.488281 902.207031 357.507812 902.207031 274.730469 C 902.207031 204.6875 876.738281 161.988281 819.421875 161.988281 Z M 816.996094 321.179688 C 787.390625 321.179688 787.574219 263.871094 787.574219 263.871094 C 787.574219 230.910156 805.230469 219.296875 816.996094 219.296875 C 828.726562 219.296875 843.050781 229.351562 844.707031 263.871094 C 845.542969 281.171875 844.707031 321.179688 816.996094 321.179688 Z M 816.996094 321.179688 " fill-opacity="1" fill-rule="nonzero"/><path fill="#ff5082" d="M 750.558594 326.601562 C 747.445312 326.667969 744.835938 323.121094 744.71875 318.6875 C 744.617188 314.238281 747.0625 310.570312 750.171875 310.503906 C 753.285156 310.4375 755.898438 313.984375 756.015625 318.417969 C 756.113281 322.871094 753.671875 326.535156 750.558594 326.601562 Z M 734.542969 263.488281 C 734.542969 284.753906 743.113281 301.988281 748.230469 301.988281 C 753.351562 301.988281 757.488281 284.753906 757.488281 263.488281 C 757.488281 242.21875 753.351562 224.984375 748.230469 224.984375 C 743.113281 224.984375 734.542969 242.21875 734.542969 263.488281 Z M 734.542969 263.488281 " fill-opacity="1" fill-rule="nonzero"/><g clip-path="url(#efe74c8ee0)"><path fill="#ff9900" d="M 707.515625 386.710938 C 683.453125 386.710938 656.4375 365.292969 639.128906 342.960938 C 621.804688 365.292969 594.804688 386.710938 570.742188 386.710938 C 563.546875 386.710938 557.144531 384.757812 551.691406 380.921875 C 528.546875 364.660156 535.6875 338.386719 542.703125 326.773438 L 580.132812 269.964844 L 551.394531 231.652344 C 542.878906 220.285156 538.078125 207.035156 537.515625 193.308594 C 536.8125 176.464844 542.546875 164.269531 554.101562 158.074219 C 560.996094 154.378906 568.261719 152.496094 575.703125 152.496094 C 595.558594 152.496094 609.703125 165.554688 613.570312 169.550781 C 617.632812 173.753906 625.671875 183.558594 633.445312 193.027344 C 635.363281 195.347656 637.296875 197.722656 639.128906 199.925781 C 640.871094 197.828125 642.734375 195.542969 644.667969 193.203125 C 644.667969 193.203125 644.898438 192.917969 644.898438 192.917969 C 652.652344 183.488281 660.675781 173.71875 664.683594 169.550781 C 668.535156 165.554688 682.695312 152.496094 702.554688 152.496094 C 709.992188 152.496094 717.257812 154.378906 724.152344 158.074219 C 735.710938 164.289062 741.441406 176.464844 740.738281 193.308594 C 740.175781 207.035156 735.375 220.285156 726.863281 231.636719 L 698.140625 269.964844 L 735.359375 326.4375 C 742.5 338.246094 749.726562 364.644531 726.582031 380.921875 C 721.109375 384.757812 714.707031 386.710938 707.515625 386.710938 Z M 707.515625 386.710938 " fill-opacity="1" fill-rule="nonzero"/></g><path fill="#ffb000" d="M 707.515625 383.386719 C 684.101562 383.386719 656.152344 360.878906 639.128906 337.4375 C 622.101562 360.878906 594.136719 383.386719 570.742188 383.386719 C 564.25 383.386719 558.480469 381.644531 553.59375 378.210938 C 532.433594 363.359375 539.0625 339.179688 545.535156 328.480469 L 584.179688 269.84375 L 554.03125 229.648438 C 545.921875 218.824219 541.367188 206.207031 540.824219 193.148438 C 540.171875 177.664062 545.308594 166.539062 555.667969 160.980469 C 562.070312 157.546875 568.808594 155.804688 575.703125 155.804688 C 594.257812 155.804688 607.554688 168.089844 611.179688 171.835938 C 615.136719 175.9375 623.140625 185.6875 630.878906 195.121094 C 633.710938 198.585938 636.628906 202.125 639.109375 205.097656 C 641.484375 202.246094 644.28125 198.832031 647.203125 195.277344 L 647.324219 195.121094 C 655.097656 185.652344 663.101562 175.917969 667.042969 171.835938 C 670.683594 168.070312 683.980469 155.789062 702.519531 155.789062 C 709.414062 155.789062 716.148438 157.53125 722.550781 160.960938 C 732.914062 166.523438 738.046875 177.644531 737.398438 193.132812 C 736.851562 206.1875 732.296875 218.808594 724.1875 229.613281 L 694.074219 269.84375 L 732.578125 328.25 C 739.140625 339.109375 745.804688 363.339844 724.664062 378.195312 C 719.773438 381.644531 714.003906 383.386719 707.515625 383.386719 Z M 707.515625 383.386719 " fill-opacity="1" fill-rule="nonzero"/><path fill="#fdc500" d="M 707.515625 380.078125 C 684.4375 380.078125 655.589844 356.160156 639.128906 331.648438 C 622.664062 356.160156 593.820312 380.078125 570.742188 380.078125 C 564.953125 380.078125 559.820312 378.527344 555.492188 375.5 C 536.335938 362.058594 542.457031 339.988281 548.367188 330.203125 L 588.226562 269.734375 L 556.6875 227.675781 C 548.984375 217.382812 544.640625 205.414062 544.128906 193.027344 C 543.550781 178.894531 548.070312 168.828125 557.234375 163.917969 C 563.144531 160.75 569.351562 159.132812 575.703125 159.132812 C 592.9375 159.132812 605.390625 170.640625 608.804688 174.160156 C 612.65625 178.15625 620.625 187.851562 628.328125 197.230469 C 632.390625 202.175781 636.296875 206.929688 639.128906 210.273438 C 641.960938 206.929688 645.847656 202.195312 649.910156 197.25 C 657.613281 187.867188 665.582031 178.15625 669.453125 174.160156 C 672.863281 170.640625 685.300781 159.132812 702.554688 159.132812 C 708.886719 159.132812 715.113281 160.75 721.023438 163.917969 C 730.1875 168.84375 734.707031 178.910156 734.125 193.027344 C 733.617188 205.414062 729.273438 217.382812 721.566406 227.660156 L 690.03125 269.71875 L 729.816406 330.082031 C 735.796875 339.972656 741.902344 362.039062 722.765625 375.484375 C 718.4375 378.527344 713.300781 380.078125 707.515625 380.078125 Z M 707.515625 380.078125 " fill-opacity="1" fill-rule="nonzero"/><path fill="#ffd12f" d="M 720.847656 372.773438 C 699.175781 387.996094 658.125 356.742188 639.109375 325.488281 C 620.097656 356.742188 579.042969 387.996094 557.375 372.773438 C 535.703125 357.550781 551.183594 331.910156 551.183594 331.910156 L 592.253906 269.59375 L 559.34375 225.671875 C 552.21875 216.167969 547.945312 204.761719 547.453125 192.882812 C 547.03125 182.730469 549.230469 171.976562 558.816406 166.839844 C 579.710938 155.628906 598.742188 168.492188 606.429688 176.464844 C 612.972656 183.242188 632.65625 208.089844 639.144531 215.339844 C 645.617188 208.089844 665.316406 183.242188 671.859375 176.464844 C 679.53125 168.492188 698.5625 155.628906 719.457031 166.839844 C 729.042969 171.976562 731.242188 182.746094 730.820312 192.882812 C 730.328125 204.761719 726.054688 216.167969 718.929688 225.671875 L 685.984375 269.59375 L 727.054688 331.910156 C 727.054688 331.910156 742.535156 357.550781 720.847656 372.773438 Z M 720.847656 372.773438 " fill-opacity="1" fill-rule="nonzero"/><path fill="#ffe074" d="M 560.363281 189.171875 C 564.832031 186.179688 578.535156 198.816406 590.953125 217.398438 C 603.386719 235.984375 609.84375 253.476562 605.375 256.46875 C 600.90625 259.457031 587.207031 246.824219 574.789062 228.238281 C 562.351562 209.636719 555.898438 192.144531 560.363281 189.171875 Z M 556.636719 355.40625 C 559.1875 361.019531 565.21875 363.78125 570.109375 361.5625 C 575 359.347656 576.898438 352.976562 574.347656 347.363281 C 571.796875 341.75 565.765625 338.984375 560.875 341.203125 C 555.984375 343.4375 554.085938 349.789062 556.636719 355.40625 Z M 556.636719 355.40625 " fill-opacity="1" fill-rule="nonzero"/><g clip-path="url(#7ae1d1a5af)"><path fill="#c2083d" d="M 450.859375 657.160156 C 409.175781 657.160156 379.230469 642.648438 361.820312 614.042969 C 350.394531 595.273438 344.847656 571.226562 344.847656 540.535156 L 344.847656 473.84375 C 344.847656 453.742188 363.03125 423.910156 388.164062 423.910156 C 422.425781 423.910156 431.484375 456.5625 431.484375 473.84375 L 431.484375 540.554688 C 431.484375 545.792969 432.289062 571.945312 448.28125 571.945312 C 460.671875 571.945312 465.078125 555.03125 465.078125 540.554688 L 465.078125 473.84375 C 465.078125 454.53125 477.574219 423.910156 511.113281 423.910156 C 540.496094 423.910156 550.9375 450.816406 550.9375 473.84375 C 550.9375 481.804688 551.0625 487.132812 551.21875 493.316406 C 551.449219 502.765625 551.730469 514.421875 551.730469 540.535156 C 551.730469 554.382812 551.730469 583.179688 539.285156 608.644531 C 523.523438 640.84375 493.789062 657.160156 450.859375 657.160156 Z M 450.859375 657.160156 " fill-opacity="1" fill-rule="nonzero"/></g><path fill="#cf0942" d="M 450.859375 653.867188 C 410.421875 653.867188 381.40625 639.898438 364.644531 612.34375 C 353.554688 594.097656 348.148438 570.613281 348.148438 540.554688 L 348.148438 473.84375 C 348.148438 455.074219 364.945312 427.222656 388.164062 427.222656 C 419.8125 427.222656 428.183594 457.71875 428.183594 473.84375 L 428.183594 540.554688 C 428.183594 546.355469 429.148438 575.257812 448.28125 575.257812 C 463.109375 575.257812 468.375 556.574219 468.375 540.554688 L 468.375 473.84375 C 468.375 455.828125 479.976562 427.222656 511.097656 427.222656 C 538.039062 427.222656 547.605469 452.339844 547.605469 473.84375 C 547.605469 481.871094 547.726562 487.253906 547.886719 493.492188 C 548.113281 502.851562 548.394531 514.472656 548.394531 540.554688 C 548.394531 554.15625 548.394531 582.425781 536.285156 607.226562 C 521.152344 638.160156 492.421875 653.867188 450.859375 653.867188 Z M 450.859375 653.867188 " fill-opacity="1" fill-rule="nonzero"/><path fill="#eb104f" d="M 450.859375 650.570312 C 411.648438 650.570312 383.601562 637.128906 367.472656 610.625 C 356.695312 592.90625 351.464844 569.980469 351.464844 540.535156 L 351.464844 473.84375 C 351.464844 456.808594 367.226562 430.519531 388.164062 430.519531 C 417.195312 430.519531 424.867188 458.859375 424.867188 473.84375 L 424.867188 540.554688 C 424.867188 546.898438 425.988281 578.550781 448.28125 578.550781 C 465.550781 578.550781 471.695312 558.082031 471.695312 540.554688 L 471.695312 473.84375 C 471.695312 457.089844 482.398438 430.519531 511.113281 430.519531 C 535.617188 430.519531 544.320312 453.863281 544.320312 473.84375 C 544.320312 481.890625 544.445312 487.304688 544.601562 493.5625 C 544.832031 502.941406 545.113281 514.597656 545.113281 540.535156 C 545.09375 567.753906 545.09375 650.570312 450.859375 650.570312 Z M 450.859375 650.570312 " fill-opacity="1" fill-rule="nonzero"/><path fill="#eb104f" d="M 421.566406 473.84375 C 421.566406 490.515625 421.566406 521.570312 421.566406 540.554688 C 421.566406 559.519531 428.253906 581.863281 448.28125 581.863281 C 468.304688 581.863281 474.992188 559.289062 474.992188 540.554688 C 474.992188 515.050781 474.992188 486.816406 474.992188 473.84375 C 474.992188 460.875 482.820312 433.832031 511.097656 433.832031 C 539.371094 433.832031 540.988281 467.183594 540.988281 473.84375 C 540.988281 493.863281 541.777344 497.070312 541.777344 540.554688 C 541.777344 579.09375 535.703125 647.277344 450.84375 647.277344 C 364.136719 647.277344 354.746094 580.566406 354.746094 540.554688 C 354.746094 512.492188 354.746094 506.269531 354.746094 473.84375 C 354.746094 459.070312 369 433.832031 388.148438 433.832031 C 414.878906 433.8125 421.566406 460.28125 421.566406 473.84375 Z M 421.566406 473.84375 " fill-opacity="1" fill-rule="nonzero"/><path fill="#ff5082" d="M 376.6875 582.636719 C 373.421875 582.707031 370.683594 578.988281 370.5625 574.34375 C 370.457031 569.683594 373.019531 565.84375 376.28125 565.773438 C 379.546875 565.703125 382.285156 569.421875 382.410156 574.066406 C 382.515625 578.710938 379.96875 582.566406 376.6875 582.636719 Z M 366.789062 518.1875 C 366.789062 540.464844 371.140625 558.519531 376.492188 558.519531 C 381.863281 558.519531 386.199219 540.464844 386.199219 518.1875 C 386.199219 495.910156 381.847656 477.859375 376.492188 477.859375 C 371.121094 477.859375 366.789062 495.910156 366.789062 518.1875 Z M 366.789062 518.1875 " fill-opacity="1" fill-rule="nonzero"/><g clip-path="url(#6bf0701f04)"><path fill="#ff9900" d="M 765.449219 657.144531 C 722.644531 657.144531 717.851562 608.355469 715.007812 579.210938 L 714.972656 578.933594 C 714.695312 576.074219 714.449219 573.5 714.167969 571.152344 C 713.589844 566.175781 712.867188 564.472656 712.484375 563.894531 C 711.921875 564.035156 711.042969 564.542969 710.515625 565.261719 C 708.640625 567.839844 708.324219 572.34375 708.253906 575.515625 C 708.058594 583.875 705.25 657.160156 666.464844 657.160156 C 665.871094 657.160156 665.289062 657.144531 664.730469 657.109375 C 664.167969 657.144531 663.589844 657.160156 662.992188 657.160156 C 640.632812 657.160156 632.050781 630.296875 627.433594 615.855469 L 627.191406 615.066406 C 624.46875 606.566406 623.820312 597.929688 623.1875 589.570312 C 622.503906 580.527344 621.855469 571.992188 618.644531 565.105469 C 618.503906 564.808594 618.363281 564.542969 618.257812 564.335938 C 617.800781 564.753906 617.292969 565.351562 616.851562 566.140625 C 613.113281 572.9375 612.535156 582.347656 611.902344 592.304688 C 611.324219 601.714844 610.710938 611.457031 607.410156 620.65625 C 602.550781 634.292969 590.441406 657.144531 564.027344 657.144531 C 556.796875 657.144531 550.460938 654.445312 545.144531 649.132812 C 524.890625 628.824219 525.1875 568.085938 525.46875 514.496094 L 525.46875 514.144531 C 525.503906 508.132812 525.523438 502.226562 525.523438 496.496094 C 525.523438 425.945312 575.558594 423.910156 581.261719 423.910156 L 581.734375 423.910156 C 624.90625 423.910156 640.527344 461.21875 653.09375 491.1875 L 653.199219 491.449219 C 654.671875 494.972656 656.113281 498.40625 657.570312 501.71875 C 659.324219 505.699219 662.570312 508.9375 664.800781 508.9375 C 664.871094 508.9375 664.957031 508.9375 665.042969 508.921875 C 666.117188 508.816406 667.90625 507.746094 669.414062 505.574219 C 671.273438 502.894531 672.539062 499.230469 673.871094 495.339844 L 673.976562 495.023438 C 689.84375 448.496094 715.414062 423.910156 747.898438 423.910156 L 748.109375 423.910156 C 753.863281 423.910156 803.917969 425.945312 803.917969 496.496094 C 803.917969 502.226562 803.953125 508.132812 803.96875 514.144531 L 803.96875 514.476562 C 804.234375 568.066406 804.550781 628.804688 784.3125 649.117188 C 779.015625 654.445312 772.679688 657.144531 765.449219 657.144531 Z M 765.449219 657.144531 " fill-opacity="1" fill-rule="nonzero"/></g><path fill="#ffb000" d="M 765.449219 653.832031 C 725.644531 653.832031 721.046875 606.917969 718.292969 578.878906 C 717.992188 575.898438 717.730469 573.203125 717.449219 570.746094 C 716.992188 566.753906 716.167969 562.003906 713.9375 560.792969 C 713.605469 560.617188 713.21875 560.53125 712.761719 560.53125 C 711.078125 560.53125 709.007812 561.6875 707.832031 563.300781 C 705.445312 566.578125 705.023438 571.5 704.9375 575.425781 C 704.742188 583.453125 702.09375 653.847656 666.449219 653.847656 C 665.835938 653.847656 665.273438 653.832031 664.710938 653.777344 C 664.148438 653.8125 663.570312 653.847656 662.972656 653.847656 C 643.039062 653.847656 634.929688 628.472656 630.558594 614.839844 L 630.3125 614.050781 C 627.714844 605.9375 627.066406 597.488281 626.453125 589.324219 C 625.75 579.964844 625.082031 571.152344 621.609375 563.703125 C 620.609375 561.566406 619.644531 560.582031 619.0625 560.390625 C 618.957031 560.355469 618.886719 560.339844 618.765625 560.339844 C 617.730469 560.339844 615.394531 561.828125 613.90625 564.542969 C 609.816406 571.992188 609.199219 581.753906 608.550781 592.09375 C 607.972656 601.292969 607.375 610.773438 604.25 619.554688 C 599.671875 632.363281 588.371094 653.847656 563.992188 653.847656 C 557.675781 653.847656 552.109375 651.484375 547.460938 646.804688 C 528.207031 627.457031 528.507812 567.453125 528.769531 514.511719 L 528.769531 514.160156 C 528.804688 508.152344 528.820312 502.246094 528.820312 496.496094 C 528.820312 429.152344 575.890625 427.207031 581.242188 427.207031 L 581.683594 427.207031 C 622.679688 427.207031 637.84375 463.375 650.023438 492.449219 L 650.144531 492.730469 C 651.621094 496.25 653.074219 499.722656 654.550781 503.050781 C 656.5 507.484375 660.535156 512.234375 664.800781 512.234375 C 664.976562 512.234375 665.148438 512.234375 665.324219 512.214844 C 667.660156 512.007812 670.1875 510.21875 672.117188 507.46875 C 674.242188 504.402344 675.574219 500.527344 676.980469 496.410156 L 677.085938 496.09375 C 692.476562 451.039062 716.957031 427.222656 747.898438 427.222656 L 748.144531 427.222656 C 753.550781 427.222656 800.601562 429.167969 800.601562 496.515625 C 800.601562 502.246094 800.636719 508.152344 800.652344 514.179688 L 800.652344 514.511719 C 800.917969 567.472656 801.214844 627.472656 781.960938 646.804688 C 777.328125 651.464844 771.765625 653.832031 765.449219 653.832031 Z M 765.449219 653.832031 " fill-opacity="1" fill-rule="nonzero"/><path fill="#fdc500" d="M 765.449219 650.535156 C 728.644531 650.535156 724.222656 605.480469 721.589844 578.5625 C 721.308594 575.636719 721.027344 572.886719 720.75 570.378906 C 720.132812 565.035156 719.082031 559.8125 715.535156 557.902344 C 714.710938 557.464844 713.796875 557.238281 712.78125 557.238281 C 710.027344 557.238281 706.972656 558.902344 705.179688 561.355469 C 702.25 565.386719 701.742188 570.941406 701.636719 575.339844 C 701.566406 578.40625 699.496094 650.535156 666.449219 650.535156 C 665.835938 650.535156 665.273438 650.519531 664.710938 650.464844 C 664.148438 650.519531 663.570312 650.535156 662.972656 650.535156 C 645.460938 650.535156 637.824219 626.652344 633.71875 613.824219 L 633.472656 613.035156 C 630.980469 605.289062 630.367188 597.015625 629.75 589.042969 C 629.015625 579.386719 628.332031 570.292969 624.609375 562.300781 C 623.3125 559.53125 621.820312 557.851562 620.167969 557.273438 C 619.714844 557.113281 619.257812 557.042969 618.785156 557.042969 C 616.167969 557.042969 612.902344 559.53125 611.027344 562.96875 C 606.585938 571.0625 605.953125 581.191406 605.289062 591.898438 C 604.726562 600.855469 604.148438 610.125 601.179688 618.449219 C 596.898438 630.4375 586.386719 650.554688 564.027344 650.554688 C 558.621094 650.554688 553.847656 648.503906 549.847656 644.492188 C 531.507812 626.109375 531.824219 566.824219 532.085938 514.511719 C 532.121094 508.378906 532.15625 502.351562 532.15625 496.496094 C 532.15625 432.359375 576.257812 430.519531 581.277344 430.519531 L 581.664062 430.519531 C 620.503906 430.519531 635.191406 465.566406 646.984375 493.726562 C 648.511719 497.375 650.003906 500.949219 651.53125 504.367188 C 653.988281 509.921875 659.042969 515.527344 664.816406 515.527344 C 665.097656 515.527344 665.378906 515.511719 665.660156 515.492188 C 668.992188 515.179688 672.34375 512.953125 674.855469 509.34375 C 677.257812 505.890625 678.664062 501.789062 680.136719 497.441406 L 680.242188 497.144531 C 695.109375 453.5625 718.503906 430.519531 747.898438 430.519531 L 748.179688 430.519531 C 753.199219 430.519531 797.300781 432.375 797.300781 496.496094 C 797.300781 502.351562 797.335938 508.378906 797.355469 514.511719 C 797.617188 566.824219 797.914062 626.109375 779.628906 644.457031 C 775.628906 648.484375 770.855469 650.535156 765.449219 650.535156 Z M 765.449219 650.535156 " fill-opacity="1" fill-rule="nonzero"/><path fill="#ffd12f" d="M 765.449219 647.222656 C 727.980469 647.222656 726.996094 595.773438 724.03125 569.996094 C 723.382812 564.300781 722.152344 557.726562 717.117188 554.992188 C 712.238281 552.347656 705.777344 554.921875 702.496094 559.410156 C 699.214844 563.894531 698.460938 569.714844 698.320312 575.269531 C 697.914062 592.777344 692.421875 647.242188 666.449219 647.242188 C 665.851562 647.242188 665.273438 647.207031 664.710938 647.15625 C 664.132812 647.222656 663.554688 647.242188 662.972656 647.242188 C 647.53125 647.242188 640.265625 623.445312 636.613281 612.035156 C 631.347656 595.597656 634.839844 576.390625 627.609375 560.917969 C 626.257812 558.042969 624.257812 555.203125 621.257812 554.152344 C 616.117188 552.363281 610.746094 556.605469 608.128906 561.355469 C 599.40625 577.230469 604.320312 599.785156 598.058594 617.308594 C 592.582031 632.625 581.824219 647.222656 564.027344 647.222656 C 531.804688 647.222656 535.472656 560.722656 535.472656 496.496094 C 535.472656 432.269531 581.578125 433.8125 581.578125 433.8125 C 623.03125 433.8125 635.105469 475.328125 648.511719 505.714844 C 651.652344 512.8125 658.21875 519.507812 665.957031 518.789062 C 670.714844 518.351562 674.835938 515.144531 677.558594 511.234375 C 680.277344 507.328125 681.824219 502.734375 683.347656 498.230469 C 693.246094 469.210938 712.480469 433.8125 747.898438 433.8125 C 747.898438 433.8125 794 432.269531 794 496.496094 C 794 560.722656 797.652344 647.222656 765.449219 647.222656 Z M 765.449219 647.222656 " fill-opacity="1" fill-rule="nonzero"/><path fill="#ffe074" d="M 557.921875 573.078125 C 554.65625 573.148438 551.917969 569.433594 551.796875 564.789062 C 551.691406 560.128906 554.253906 556.289062 557.515625 556.21875 C 560.78125 556.148438 563.519531 559.867188 563.640625 564.507812 C 563.746094 569.171875 561.183594 573.007812 557.921875 573.078125 Z M 548.003906 510.746094 C 548.003906 533.019531 552.355469 551.066406 557.710938 551.066406 C 563.078125 551.066406 567.414062 533.019531 567.414062 510.746094 C 567.414062 488.472656 563.0625 470.421875 557.710938 470.421875 C 552.355469 470.421875 548.003906 488.472656 548.003906 510.746094 Z M 548.003906 510.746094 " fill-opacity="1" fill-rule="nonzero"/><g clip-path="url(#9b28080866)"><path fill="#ff9900" d="M 336.347656 654.941406 C 305.097656 654.941406 276.613281 618.179688 261.339844 594.136719 C 261.128906 610.265625 258.339844 630.824219 247.0625 643.332031 C 240.117188 651.035156 231.050781 654.941406 220.140625 654.941406 C 204.832031 654.941406 192.765625 650.25 184.3125 641.019531 C 171.71875 627.289062 172.175781 608.707031 172.4375 604.800781 L 172.4375 500.230469 C 172.4375 425.410156 217.667969 421.996094 219.597656 421.890625 C 219.863281 421.875 219.863281 421.875 281.910156 421.875 C 282.839844 421.910156 365.636719 425.269531 365.636719 500.769531 C 365.636719 526.269531 353.113281 548.355469 334 557.425781 C 339.855469 563.609375 346.519531 570.28125 352.042969 575.796875 C 357.148438 580.894531 361.164062 584.90625 363.144531 587.148438 C 370.179688 595.097656 378.71875 618.214844 370.722656 635.957031 C 366.8125 644.625 357.675781 654.941406 336.347656 654.941406 Z M 259.007812 521.839844 C 285.945312 521.558594 290.117188 516.988281 290.117188 502.433594 C 290.117188 498.617188 290.117188 491.488281 271.003906 491.488281 C 267.476562 491.488281 263.617188 491.769531 259.515625 492.328125 Z M 259.007812 521.839844 " fill-opacity="1" fill-rule="nonzero"/></g><path fill="#ffb000" d="M 336.347656 651.648438 C 301.324219 651.648438 269.019531 601.4375 257.707031 581.753906 C 258.761719 598.25 258.164062 626.078125 244.609375 641.125 C 238.3125 648.113281 230.070312 651.648438 220.140625 651.648438 C 205.796875 651.648438 194.554688 647.324219 186.75 638.792969 C 174.789062 625.746094 175.5625 607.53125 175.734375 604.90625 L 175.734375 500.230469 C 175.734375 428.476562 217.984375 425.289062 219.773438 425.183594 C 219.914062 425.183594 219.933594 425.183594 281.910156 425.167969 C 282.824219 425.203125 362.320312 428.617188 362.320312 500.753906 C 362.320312 526.867188 348.660156 549.109375 328.316406 556.183594 C 334.875 563.3125 343.082031 571.527344 349.695312 578.128906 C 354.78125 583.207031 358.746094 587.183594 360.65625 589.335938 C 367.003906 596.515625 375.019531 618.375 367.6875 634.589844 C 364.199219 642.382812 355.902344 651.648438 336.347656 651.648438 Z M 256.253906 525.148438 C 285.769531 525.148438 293.414062 520.472656 293.414062 502.433594 C 293.414062 498.179688 293.414062 488.195312 270.984375 488.195312 C 265.636719 488.195312 260.339844 488.828125 256.234375 489.492188 L 255.640625 525.167969 Z M 256.253906 525.148438 " fill-opacity="1" fill-rule="nonzero"/><path fill="#fdc500" d="M 336.347656 648.355469 C 301.253906 648.355469 268.265625 593.960938 258.988281 577.289062 C 258.058594 575.625 256.304688 574.589844 254.394531 574.589844 C 254.128906 574.589844 254.023438 574.644531 253.9375 574.730469 C 253.851562 574.816406 253.832031 574.921875 253.832031 575.046875 C 255.269531 588.757812 257.023438 622.417969 242.152344 638.917969 C 236.503906 645.167969 229.105469 648.355469 220.140625 648.355469 C 206.761719 648.355469 196.34375 644.398438 189.1875 636.570312 C 177.964844 624.3125 178.894531 607.007812 179.050781 605.027344 L 179.050781 500.230469 C 179.050781 431.542969 218.300781 428.582031 219.964844 428.476562 C 220.019531 428.476562 281.910156 428.476562 281.910156 428.476562 C 282.804688 428.511719 359.023438 432.03125 359.023438 500.769531 C 359.023438 525.570312 346.167969 546.621094 327.054688 553.152344 C 326 553.523438 325.230469 554.328125 324.964844 555.394531 C 324.703125 556.394531 324.964844 557.410156 325.683594 558.179688 C 332.316406 565.394531 340.679688 573.765625 347.398438 580.492188 C 352.414062 585.5 356.375 589.460938 358.21875 591.542969 C 363.917969 597.972656 371.371094 618.53125 364.726562 633.261719 C 361.585938 640.144531 354.148438 648.355469 336.347656 648.355469 Z M 252.324219 525.992188 C 252.308594 526.640625 252.550781 527.25 253.007812 527.707031 C 253.464844 528.179688 254.078125 528.425781 254.726562 528.425781 L 256.234375 528.425781 C 284.226562 528.425781 296.710938 524.660156 296.710938 502.398438 C 296.710938 498.058594 296.710938 484.851562 270.984375 484.851562 C 264.164062 484.851562 257.445312 485.832031 253.007812 486.65625 L 252.972656 486.65625 Z M 252.324219 525.992188 " fill-opacity="1" fill-rule="nonzero"/><path fill="#ffd12f" d="M 355.726562 593.714844 C 351.519531 588.953125 334.769531 572.980469 323.246094 560.40625 C 320.089844 556.972656 321.582031 551.523438 325.984375 550.019531 C 342.539062 544.363281 355.726562 525.308594 355.726562 500.769531 C 355.726562 434.414062 281.910156 431.785156 281.910156 431.785156 L 220.140625 431.785156 C 220.140625 431.785156 182.347656 433.886719 182.347656 500.246094 C 182.347656 566.605469 182.347656 605.167969 182.347656 605.167969 C 182.347656 605.167969 178.789062 645.0625 220.140625 645.0625 C 255.234375 645.0625 252.253906 591.597656 250.554688 575.394531 C 250.324219 573.222656 252.027344 571.316406 254.199219 571.296875 L 254.289062 571.296875 C 257.425781 571.261719 260.339844 572.945312 261.863281 575.695312 C 270.757812 591.683594 302.957031 645.0625 336.347656 645.0625 C 375.617188 645.046875 364.09375 603.171875 355.726562 593.714844 Z M 254.726562 531.753906 C 251.535156 531.734375 248.972656 529.125 249.027344 525.9375 L 249.675781 486.359375 C 249.761719 485.621094 250.078125 484.957031 250.554688 484.449219 C 251.027344 483.921875 251.675781 483.574219 252.410156 483.433594 C 267.371094 480.667969 300.027344 477.480469 300.027344 502.433594 C 300.027344 530.125 280.507812 531.824219 254.726562 531.753906 Z M 254.726562 531.753906 " fill-opacity="1" fill-rule="nonzero"/><path fill="#ffe074" d="M 206.375 580.476562 C 203.113281 580.546875 200.375 576.832031 200.253906 572.191406 C 200.148438 567.53125 202.710938 563.695312 205.972656 563.628906 C 209.234375 563.558594 211.96875 567.269531 212.09375 571.910156 C 212.199219 576.550781 209.636719 580.40625 206.375 580.476562 Z M 196.464844 516.113281 C 196.464844 538.371094 200.816406 556.410156 206.164062 556.410156 C 211.53125 556.410156 215.863281 538.371094 215.863281 516.113281 C 215.863281 493.855469 211.511719 475.816406 206.164062 475.816406 C 200.816406 475.816406 196.464844 493.855469 196.464844 516.113281 Z M 196.464844 516.113281 " fill-opacity="1" fill-rule="nonzero"/><g clip-path="url(#6ec5e6823f)"><path fill="#c2083d" d="M 1233.914062 656.511719 C 1233.5625 656.511719 1233.3125 656.511719 1233.171875 656.496094 L 1125.800781 656.496094 C 1062.066406 656.511719 1060.816406 624.34375 1060.796875 622.96875 L 1060.796875 487.019531 C 1060.796875 426.191406 1092.503906 421.800781 1144.730469 421.800781 C 1152.359375 421.800781 1160.75 421.925781 1169.617188 422.03125 L 1170.023438 422.03125 C 1180.457031 422.171875 1192.300781 422.332031 1204.917969 422.332031 C 1244.03125 422.332031 1263.875 434.582031 1263.875 458.710938 C 1263.875 477.023438 1251.875 495.515625 1225.046875 495.515625 L 1153.1875 495.515625 L 1153.171875 496.609375 C 1158.460938 496.007812 1163.640625 495.710938 1168.523438 495.710938 C 1199.386719 495.710938 1217.820312 509.15625 1217.820312 531.667969 C 1217.820312 553.929688 1199.5625 567.199219 1169 567.199219 C 1165.722656 567.199219 1162.265625 567.058594 1158.722656 566.796875 C 1158.53125 566.777344 1158.335938 566.777344 1158.140625 566.777344 C 1154.40625 566.777344 1151.390625 569.703125 1151.304688 573.441406 C 1151.179688 578.304688 1151.957031 581.511719 1152.574219 582.90625 L 1227.25 582.90625 C 1234.988281 582.90625 1242.496094 584.792969 1248.964844 588.335938 C 1257.902344 593.253906 1268.546875 603.035156 1268.546875 621.753906 C 1268.53125 649.199219 1246.78125 656.511719 1233.914062 656.511719 Z M 1233.914062 656.511719 " fill-opacity="1" fill-rule="nonzero"/></g><path fill="#cf0942" d="M 1233.3125 653.183594 L 1125.800781 653.183594 C 1065.308594 653.183594 1064.144531 624.152344 1064.128906 622.917969 L 1064.128906 487.019531 C 1064.128906 431.230469 1089.949219 425.132812 1144.730469 425.132812 C 1152.359375 425.132812 1160.75 425.257812 1169.632812 425.363281 C 1180.246094 425.503906 1192.140625 425.664062 1204.902344 425.664062 C 1242.339844 425.664062 1260.527344 436.484375 1260.527344 458.730469 C 1260.527344 475.386719 1249.546875 492.203125 1225.011719 492.203125 L 1152.183594 492.203125 C 1150.96875 492.203125 1149.929688 493.222656 1149.894531 494.441406 L 1149.839844 497.066406 C 1149.824219 497.859375 1150.105469 498.582031 1150.652344 499.144531 C 1151.214844 499.710938 1151.921875 500.027344 1152.695312 500.027344 C 1152.820312 500.027344 1152.941406 500.027344 1153.046875 500.011719 C 1158.40625 499.394531 1163.605469 499.074219 1168.523438 499.074219 C 1197.730469 499.074219 1214.492188 510.972656 1214.492188 531.703125 C 1214.492188 552.183594 1197.90625 563.921875 1168.980469 563.921875 C 1165.792969 563.921875 1162.40625 563.78125 1158.953125 563.515625 C 1158.671875 563.5 1158.390625 563.480469 1158.125 563.480469 C 1152.554688 563.480469 1148.113281 567.835938 1147.972656 573.386719 C 1147.8125 580.050781 1149.152344 584.492188 1150.5625 585.9375 C 1150.878906 586.253906 1151.019531 586.253906 1151.234375 586.253906 L 1227.234375 586.253906 C 1234.425781 586.253906 1241.367188 588 1247.34375 591.277344 C 1255.488281 595.753906 1265.199219 604.691406 1265.199219 621.789062 C 1265.199219 646.589844 1245.527344 653.199219 1233.894531 653.199219 C 1233.632812 653.199219 1233.421875 653.183594 1233.3125 653.183594 Z M 1233.3125 653.183594 " fill-opacity="1" fill-rule="nonzero"/><path fill="#e10c49" d="M 1233.914062 649.867188 C 1233.5625 649.867188 1233.382812 649.851562 1233.382812 649.851562 L 1125.800781 649.851562 C 1068.550781 649.851562 1067.460938 623.957031 1067.441406 622.847656 L 1067.441406 487 C 1067.441406 433.964844 1090.988281 428.429688 1144.730469 428.429688 C 1152.359375 428.429688 1160.769531 428.554688 1169.667969 428.660156 C 1180.191406 428.800781 1192.105469 428.957031 1204.917969 428.957031 C 1240.117188 428.957031 1257.230469 438.6875 1257.230469 458.695312 C 1257.230469 473.695312 1247.273438 488.851562 1225.046875 488.851562 L 1152.183594 488.851562 C 1149.152344 488.851562 1146.648438 491.320312 1146.578125 494.335938 L 1146.527344 496.960938 C 1146.492188 498.636719 1147.109375 500.238281 1148.289062 501.4375 C 1149.46875 502.636719 1151.039062 503.304688 1152.714844 503.304688 C 1152.960938 503.304688 1153.1875 503.289062 1153.4375 503.269531 C 1158.671875 502.671875 1163.765625 502.355469 1168.542969 502.355469 C 1196.035156 502.355469 1211.195312 512.753906 1211.195312 531.667969 C 1211.195312 550.296875 1196.210938 560.554688 1169.015625 560.554688 C 1165.898438 560.554688 1162.617188 560.414062 1159.253906 560.167969 C 1158.882812 560.132812 1158.53125 560.132812 1158.160156 560.132812 C 1150.773438 560.132812 1144.871094 565.914062 1144.695312 573.28125 C 1144.535156 580.210938 1145.855469 585.796875 1148.238281 588.230469 C 1149.117188 589.128906 1150.085938 589.550781 1151.285156 589.550781 L 1227.285156 589.550781 C 1233.914062 589.550781 1240.3125 591.136719 1245.792969 594.167969 C 1253.160156 598.222656 1261.9375 606.296875 1261.9375 621.773438 C 1261.886719 649.074219 1236.785156 649.867188 1233.914062 649.867188 Z M 1233.914062 649.867188 " fill-opacity="1" fill-rule="nonzero"/><path fill="#eb104f" d="M 1258.570312 621.789062 C 1258.570312 647.578125 1233.527344 646.554688 1233.527344 646.554688 C 1233.527344 646.554688 1180.4375 646.554688 1125.800781 646.554688 C 1071.160156 646.554688 1070.753906 622.828125 1070.753906 622.828125 C 1070.753906 622.828125 1070.753906 551.636719 1070.753906 487.035156 C 1070.753906 422.402344 1104.296875 432.308594 1204.902344 432.308594 C 1245.492188 432.308594 1253.882812 445.316406 1253.882812 458.730469 C 1253.882812 472.144531 1245.160156 485.554688 1225.03125 485.554688 L 1152.183594 485.554688 C 1147.335938 485.554688 1143.371094 489.433594 1143.25 494.28125 C 1143.230469 495.128906 1143.214844 496.007812 1143.195312 496.890625 C 1143.054688 502.671875 1148.058594 507.238281 1153.804688 506.566406 C 1172.296875 504.433594 1207.84375 503.921875 1207.84375 531.667969 C 1207.84375 556.414062 1179.046875 558.371094 1159.480469 556.855469 C 1149.824219 556.113281 1141.574219 563.515625 1141.34375 573.210938 C 1141.0625 584.808594 1144.535156 592.882812 1151.25 592.882812 L 1227.25 592.882812 C 1233.136719 592.882812 1238.988281 594.238281 1244.152344 597.078125 C 1251.167969 600.957031 1258.570312 608.234375 1258.570312 621.789062 Z M 1258.570312 621.789062 " fill-opacity="1" fill-rule="nonzero"/><path fill="#ff5082" d="M 1093.5625 605.589844 C 1090.285156 605.660156 1087.535156 601.925781 1087.410156 597.253906 C 1087.304688 592.566406 1089.878906 588.703125 1093.15625 588.632812 C 1096.4375 588.5625 1099.183594 592.300781 1099.308594 596.972656 C 1099.414062 601.660156 1096.859375 605.519531 1093.5625 605.589844 Z M 1083.621094 531.367188 C 1083.621094 558.632812 1087.992188 580.738281 1093.367188 580.738281 C 1098.761719 580.738281 1103.117188 558.632812 1103.117188 531.367188 C 1103.117188 504.097656 1098.746094 481.996094 1093.367188 481.996094 C 1087.976562 481.996094 1083.621094 504.097656 1083.621094 531.367188 Z M 1083.621094 531.367188 " fill-opacity="1" fill-rule="nonzero"/><g clip-path="url(#c1b8b16cb8)"><path fill="#ff9900" d="M 983.515625 655.015625 C 951.960938 655.015625 942.082031 632.285156 939.308594 622.523438 C 938.535156 619.789062 938.132812 616.878906 938.148438 613.898438 C 938.253906 586.894531 938.5 519.996094 938.5 482.070312 C 938.5 434.488281 966.789062 421.78125 983.515625 421.78125 C 1012.632812 421.78125 1031.464844 443.726562 1031.464844 477.671875 L 1031.464844 574.132812 C 1031.464844 574.730469 1031.972656 575.238281 1032.550781 575.238281 L 1054.070312 575.394531 C 1073.390625 575.535156 1095.292969 575.710938 1101.683594 575.710938 C 1127.585938 575.710938 1144.996094 592.886719 1144.996094 618.4375 C 1144.996094 636.035156 1128.429688 655.03125 1101.683594 655.03125 L 983.515625 655.03125 Z M 983.515625 655.015625 " fill-opacity="1" fill-rule="nonzero"/></g><path fill="#ffb000" d="M 983.515625 651.71875 C 954.207031 651.71875 945.0625 630.671875 942.484375 621.628906 C 941.78125 619.191406 941.449219 616.597656 941.449219 613.933594 C 941.554688 586.945312 941.800781 520.066406 941.800781 482.089844 C 941.800781 437.082031 968.019531 425.078125 983.515625 425.078125 C 1010.632812 425.078125 1028.148438 445.722656 1028.148438 477.65625 L 1028.148438 574.117188 C 1028.148438 576.535156 1030.113281 578.515625 1032.515625 578.53125 L 1054.035156 578.691406 C 1073.375 578.832031 1095.292969 579.007812 1101.664062 579.007812 C 1125.601562 579.007812 1141.679688 594.847656 1141.679688 618.421875 C 1141.679688 634.421875 1126.375 651.703125 1101.664062 651.703125 Z M 983.515625 651.71875 " fill-opacity="1" fill-rule="nonzero"/><path fill="#fdc500" d="M 983.515625 648.425781 C 956.472656 648.425781 948.046875 629.058594 945.679688 620.734375 C 945.0625 618.597656 944.765625 616.316406 944.765625 613.953125 C 944.871094 586.980469 945.117188 520.136719 945.117188 482.105469 C 945.117188 439.710938 969.246094 428.40625 983.515625 428.40625 C 1008.613281 428.40625 1024.847656 447.753906 1024.847656 477.691406 L 1024.847656 574.152344 C 1024.847656 578.375 1028.285156 581.828125 1032.515625 581.863281 L 1052.910156 582.019531 C 1072.722656 582.179688 1095.1875 582.335938 1101.699219 582.335938 C 1123.65625 582.335938 1138.398438 596.847656 1138.398438 618.457031 C 1138.398438 632.878906 1124.355469 648.441406 1101.699219 648.441406 L 983.515625 648.441406 Z M 983.515625 648.425781 " fill-opacity="1" fill-rule="nonzero"/><path fill="#ffd12f" d="M 1021.53125 477.671875 L 1021.53125 574.132812 C 1021.53125 580.179688 1026.410156 585.105469 1032.480469 585.140625 C 1052.558594 585.28125 1092.644531 585.613281 1101.683594 585.613281 C 1121.726562 585.613281 1135.082031 598.40625 1135.082031 618.421875 C 1135.082031 631.757812 1121.726562 645.09375 1101.683594 645.09375 C 1072.144531 645.09375 1016 645.09375 983.515625 645.09375 C 958.488281 645.09375 950.976562 627.273438 948.855469 619.804688 C 948.308594 617.894531 948.066406 615.914062 948.082031 613.933594 C 948.136719 600.035156 948.433594 523.957031 948.433594 482.070312 C 948.433594 445.003906 968.160156 431.667969 983.535156 431.667969 C 1008.175781 431.683594 1021.53125 451.699219 1021.53125 477.671875 Z M 1021.53125 477.671875 " fill-opacity="1" fill-rule="nonzero"/><path fill="#ffe074" d="M 967.125 574.503906 C 963.859375 574.570312 961.121094 570.855469 961 566.210938 C 960.894531 561.550781 963.457031 557.710938 966.71875 557.640625 C 969.984375 557.570312 972.722656 561.289062 972.847656 565.933594 C 972.949219 570.578125 970.390625 574.414062 967.125 574.503906 Z M 957.207031 512.144531 C 957.207031 534.421875 961.5625 552.472656 966.914062 552.472656 C 972.285156 552.472656 976.617188 534.421875 976.617188 512.144531 C 976.617188 489.871094 972.285156 471.820312 966.929688 471.820312 C 961.5625 471.820312 957.207031 489.871094 957.207031 512.144531 Z M 957.207031 512.144531 " fill-opacity="1" fill-rule="nonzero"/><g clip-path="url(#537fe1dc79)"><path fill="#c2083d" d="M 852.03125 657.667969 C 832.738281 657.667969 808.519531 655.015625 792.46875 634.3125 C 778.324219 616.085938 771.738281 585.949219 771.738281 539.464844 C 771.738281 511.929688 773.066406 493.863281 776.1875 479.003906 C 780.183594 460.074219 791.996094 443.445312 808.605469 433.347656 C 822.46875 424.933594 836.976562 423.863281 849.789062 422.933594 C 856.097656 422.460938 861.285156 422.25 866.085938 422.25 C 876.914062 422.25 886.289062 423.40625 894.753906 425.777344 C 922.511719 433.59375 950.605469 459.144531 950.605469 492.859375 C 950.605469 504.539062 945.730469 515.09375 936.410156 523.679688 C 953.707031 528.914062 976.488281 542.75 976.488281 579.347656 C 976.488281 629.851562 932.292969 657.667969 852.03125 657.667969 Z M 853.589844 563.523438 C 851.664062 576.1875 851.488281 583.457031 851.609375 587.125 C 859.285156 586.496094 871.640625 582.613281 872.761719 574.570312 C 872.988281 572.953125 872.585938 571.726562 871.359375 570.320312 C 867.769531 566.140625 859.585938 563.628906 853.589844 563.523438 Z M 852.644531 492.632812 C 851.59375 499.21875 851.296875 502.675781 851.261719 504.503906 C 857.113281 504.414062 865.789062 500.761719 867.996094 493.984375 C 866.507812 493.40625 863.160156 492.542969 856.640625 492.542969 C 855.359375 492.527344 854.027344 492.5625 852.644531 492.632812 Z M 852.644531 492.632812 " fill-opacity="1" fill-rule="nonzero"/></g><path fill="#cf0942" d="M 852.03125 654.367188 C 833.492188 654.367188 810.253906 651.855469 795.078125 632.292969 C 781.410156 614.660156 775.03125 585.175781 775.03125 539.464844 C 775.03125 512.175781 776.34375 494.300781 779.410156 479.691406 C 783.214844 461.65625 794.464844 445.796875 810.308594 436.191406 C 823.484375 428.203125 837.574219 427.164062 850.015625 426.253906 C 856.253906 425.796875 861.355469 425.566406 866.085938 425.566406 C 876.601562 425.566406 885.695312 426.691406 893.84375 428.972656 C 920.390625 436.457031 947.292969 460.792969 947.292969 492.878906 C 947.292969 505.574219 941.089844 516.65625 929.257812 525.296875 C 947.046875 529.019531 973.191406 541.011719 973.191406 579.363281 C 973.191406 627.726562 930.171875 654.367188 852.03125 654.367188 Z M 848.578125 590.5 C 848.859375 590.515625 849.15625 590.515625 849.492188 590.515625 C 857.128906 590.515625 874.410156 586.617188 876.023438 575.007812 C 876.390625 572.445312 875.6875 570.269531 873.847656 568.125 C 869.378906 562.980469 859.863281 560.1875 853.207031 560.1875 C 852.539062 560.1875 851.910156 560.222656 851.3125 560.277344 C 850.960938 560.3125 850.699219 560.558594 850.648438 560.910156 C 847.84375 578.433594 848.070312 587.265625 848.578125 590.5 Z M 848.296875 507.488281 C 848.632812 507.59375 849.507812 507.804688 851.050781 507.804688 C 858.007812 507.804688 869.308594 503.34375 871.484375 493.757812 C 871.746094 492.613281 871.519531 492.332031 871.449219 492.246094 C 870.554688 491.121094 866.417969 489.226562 856.640625 489.226562 C 854.835938 489.226562 852.925781 489.296875 850.980469 489.417969 C 850.277344 489.472656 849.71875 489.960938 849.613281 490.664062 L 849.402344 491.945312 C 848.824219 495.582031 847.316406 505.046875 848.296875 507.488281 Z M 848.296875 507.488281 " fill-opacity="1" fill-rule="nonzero"/><path fill="#e10c49" d="M 852.03125 651.066406 C 805.363281 651.066406 778.34375 632.800781 778.34375 539.484375 C 778.34375 512.441406 779.640625 494.757812 782.652344 480.390625 C 786.265625 463.234375 796.972656 448.152344 812.023438 439.019531 C 824.519531 431.433594 838.203125 430.433594 850.261719 429.535156 C 856.414062 429.078125 861.441406 428.867188 866.085938 428.867188 C 876.300781 428.867188 885.082031 429.941406 892.949219 432.152344 C 918.324219 439.300781 943.996094 462.445312 943.996094 492.859375 C 943.996094 509.980469 931.816406 520.78125 919.953125 527.210938 C 937.566406 528.824219 969.878906 537.5 969.878906 579.328125 C 969.878906 625.585938 928.03125 651.066406 852.03125 651.066406 Z M 846.089844 593.535156 C 846.632812 593.660156 847.703125 593.835938 849.492188 593.835938 C 858.375 593.835938 877.351562 589.355469 879.296875 575.484375 C 879.789062 571.953125 878.824219 568.847656 876.355469 565.984375 C 871.183594 560.03125 860.792969 556.90625 853.207031 556.90625 C 852.453125 556.90625 851.714844 556.941406 851.015625 556.992188 C 849.175781 557.148438 847.667969 558.554688 847.386719 560.398438 C 844.023438 581.4375 844.742188 591.605469 846.089844 593.535156 Z M 856.640625 485.90625 C 854.765625 485.90625 852.785156 485.976562 850.769531 486.117188 C 848.527344 486.257812 846.703125 487.925781 846.351562 490.136719 L 846.144531 491.421875 C 845.074219 498.058594 843.480469 508.066406 846.160156 510.085938 C 846.828125 510.578125 848.457031 511.125 851.050781 511.125 C 859.304688 511.125 872.097656 505.960938 874.707031 494.492188 C 875.25 492.070312 874.585938 490.875 874.042969 490.191406 C 871.867188 487.46875 865.542969 485.90625 856.640625 485.90625 Z M 856.640625 485.90625 " fill-opacity="1" fill-rule="nonzero"/><path fill="#eb104f" d="M 906.6875 530.421875 C 906.164062 530.457031 906.003906 529.738281 906.496094 529.5625 C 920.023438 524.769531 940.683594 514.019531 940.683594 492.878906 C 940.683594 465.183594 917.535156 442.53125 892.054688 435.347656 C 878.5625 431.554688 864.351562 431.820312 850.507812 432.835938 C 837.589844 433.785156 825.132812 434.925781 813.722656 441.847656 C 799.566406 450.449219 789.296875 464.816406 785.878906 481.058594 C 782.757812 495.914062 781.636719 514.300781 781.636719 539.464844 C 781.636719 634.996094 810.445312 647.746094 852.03125 647.746094 C 893.617188 647.746094 966.585938 639.898438 966.585938 579.347656 C 966.585938 534.410156 926.929688 528.84375 906.6875 530.421875 Z M 843.09375 489.613281 C 843.691406 485.871094 846.773438 483.042969 850.542969 482.796875 C 861.089844 482.09375 880.824219 482.464844 877.914062 495.214844 C 873.988281 512.511719 850.453125 517.445312 844.179688 512.722656 C 839.710938 509.367188 841.640625 498.832031 843.09375 489.613281 Z M 882.574219 575.941406 C 879.964844 594.554688 852.222656 598.734375 844.917969 596.644531 C 839.152344 594.992188 842.464844 570.339844 844.128906 559.871094 C 844.652344 556.535156 847.386719 553.988281 850.734375 553.691406 C 863.210938 552.585938 884.785156 560.257812 882.574219 575.941406 Z M 882.574219 575.941406 " fill-opacity="1" fill-rule="nonzero"/><path fill="#ff5082" d="M 804.875 591.394531 C 801.613281 591.464844 798.882812 587.742188 798.757812 583.085938 C 798.652344 578.417969 801.210938 574.570312 804.472656 574.5 C 807.730469 574.429688 810.464844 578.152344 810.585938 582.804688 C 810.710938 587.476562 808.152344 591.324219 804.875 591.394531 Z M 794.992188 526.402344 C 794.992188 548.722656 799.335938 566.808594 804.679688 566.808594 C 810.042969 566.808594 814.371094 548.722656 814.371094 526.402344 C 814.371094 504.082031 810.027344 485.992188 804.679688 485.992188 C 799.320312 486.011719 794.992188 504.097656 794.992188 526.402344 Z M 794.992188 526.402344 " fill-opacity="1" fill-rule="nonzero"/></svg>