<svg xmlns="http://www.w3.org/2000/svg" xmlns:xlink="http://www.w3.org/1999/xlink" width="1920" zoomAndPan="magnify" viewBox="0 0 1440 809.999993" height="1080" preserveAspectRatio="xMidYMid meet" version="1.0"><defs><clipPath id="087e5c38f9"><path d="M 723.695312 129.328125 L 920.945312 129.328125 L 920.945312 364.828125 L 723.695312 364.828125 Z M 723.695312 129.328125 " clip-rule="nonzero"/></clipPath><clipPath id="e15efd1a54"><path d="M 526 129.328125 L 734 129.328125 L 734 364 L 526 364 Z M 526 129.328125 " clip-rule="nonzero"/></clipPath><clipPath id="f53f0765f5"><path d="M 268.894531 447.078125 L 475.894531 447.078125 L 475.894531 680.328125 L 268.894531 680.328125 Z M 268.894531 447.078125 " clip-rule="nonzero"/></clipPath><clipPath id="0734ded994"><path d="M 477 442.820312 L 756.660156 442.820312 L 756.660156 676.070312 L 477 676.070312 Z M 477 442.820312 " clip-rule="nonzero"/></clipPath><clipPath id="5adf425467"><path d="M 76 441.121094 L 279 441.121094 L 279 674.371094 L 76 674.371094 Z M 76 441.121094 " clip-rule="nonzero"/></clipPath><clipPath id="9a6e5d7cd6"><path d="M 1156.664062 442.820312 L 1364.414062 442.820312 L 1364.414062 677.570312 L 1156.664062 677.570312 Z M 1156.664062 442.820312 " clip-rule="nonzero"/></clipPath><clipPath id="b6064e8d11"><path d="M 963.164062 441.121094 L 1170.164062 441.121094 L 1170.164062 674.371094 L 963.164062 674.371094 Z M 963.164062 441.121094 " clip-rule="nonzero"/></clipPath><clipPath id="dc6855dbfb"><path d="M 757.414062 441.121094 L 962.164062 441.121094 L 962.164062 676.621094 L 757.414062 676.621094 Z M 757.414062 441.121094 " clip-rule="nonzero"/></clipPath></defs><g clip-path="url(#087e5c38f9)"><path fill="#c2083d" d="M 817.828125 364.792969 C 748.429688 364.792969 723.695312 299.71875 723.695312 238.832031 C 723.695312 171.3125 763.925781 129.367188 828.6875 129.367188 C 889.03125 129.367188 920.945312 171.613281 920.945312 251.5625 C 920.929688 353.75 848.820312 364.792969 817.828125 364.792969 Z M 826.261719 205.597656 C 818.246094 205.597656 806.3125 214.953125 806.3125 240.722656 C 806.332031 249.738281 808.488281 275.324219 818.246094 285.113281 C 820.636719 287.503906 823.113281 288.578125 826.261719 288.578125 C 830.328125 288.578125 833.273438 287.386719 835.832031 284.695312 C 842.257812 277.949219 845.503906 261.6875 844.519531 241.191406 C 842.929688 208.160156 830.144531 205.597656 826.261719 205.597656 Z M 826.261719 205.597656 " fill-opacity="1" fill-rule="nonzero"/></g><path fill="#cf0942" d="M 817.828125 361.632812 C 750.753906 361.632812 726.859375 298.199219 726.859375 238.832031 C 726.839844 173.253906 765.867188 132.511719 828.6875 132.511719 C 886.972656 132.511719 917.78125 173.671875 917.78125 251.5625 C 917.78125 350.90625 847.882812 361.632812 817.828125 361.632812 Z M 826.261719 202.4375 C 816.972656 202.4375 803.152344 212.625 803.152344 240.703125 C 803.152344 241.039062 803.269531 274.539062 816.003906 287.320312 C 819 290.316406 822.246094 291.707031 826.246094 291.707031 C 831.179688 291.707031 834.945312 290.164062 838.109375 286.851562 C 845.222656 279.390625 848.71875 262.675781 847.664062 241.023438 C 845.941406 205.214844 830.847656 202.4375 826.261719 202.4375 Z M 826.261719 202.4375 " fill-opacity="1" fill-rule="nonzero"/><path fill="#e10c49" d="M 817.828125 358.484375 C 753.082031 358.484375 730.003906 296.675781 730.003906 238.847656 C 730.003906 175.210938 767.824219 135.691406 828.6875 135.691406 C 884.914062 135.691406 914.636719 175.765625 914.636719 251.582031 C 914.621094 348.0625 846.929688 358.484375 817.828125 358.484375 Z M 826.261719 199.289062 C 815.703125 199.289062 800.003906 210.316406 800.003906 240.703125 C 800.003906 241.054688 800.070312 275.792969 813.777344 289.546875 C 817.339844 293.128906 821.425781 294.867188 826.261719 294.867188 C 832.035156 294.867188 836.652344 292.960938 840.402344 289.027344 C 850.960938 277.949219 851.464844 254.089844 850.828125 240.855469 C 848.96875 202.285156 831.550781 199.289062 826.261719 199.289062 Z M 826.261719 199.289062 " fill-opacity="1" fill-rule="nonzero"/><path fill="#eb104f" d="M 828.6875 138.820312 C 771.371094 138.820312 733.167969 175.144531 733.167969 238.832031 C 733.167969 301.007812 758.636719 355.324219 817.828125 355.324219 C 860.535156 355.324219 911.472656 334.339844 911.472656 251.5625 C 911.472656 181.519531 886.003906 138.820312 828.6875 138.820312 Z M 826.261719 298.011719 C 796.65625 298.011719 796.839844 240.703125 796.839844 240.703125 C 796.839844 207.742188 814.496094 196.128906 826.261719 196.128906 C 837.992188 196.128906 852.316406 206.183594 853.972656 240.703125 C 854.808594 258.003906 853.972656 298.011719 826.261719 298.011719 Z M 826.261719 298.011719 " fill-opacity="1" fill-rule="nonzero"/><path fill="#ff5082" d="M 759.824219 303.433594 C 756.710938 303.5 754.101562 299.953125 753.984375 295.519531 C 753.882812 291.070312 756.328125 287.40625 759.441406 287.339844 C 762.550781 287.269531 765.164062 290.820312 765.28125 295.253906 C 765.378906 299.703125 762.9375 303.367188 759.824219 303.433594 Z M 743.808594 240.320312 C 743.808594 261.585938 752.378906 278.820312 757.5 278.820312 C 762.621094 278.820312 766.753906 261.585938 766.753906 240.320312 C 766.753906 219.050781 762.621094 201.816406 757.5 201.816406 C 752.378906 201.816406 743.808594 219.050781 743.808594 240.320312 Z M 743.808594 240.320312 " fill-opacity="1" fill-rule="nonzero"/><g clip-path="url(#e15efd1a54)"><path fill="#ff9900" d="M 698.246094 363.542969 C 674.1875 363.542969 647.167969 342.128906 629.863281 319.796875 C 612.535156 342.128906 585.539062 363.542969 561.476562 363.542969 C 554.28125 363.542969 547.878906 361.589844 542.425781 357.753906 C 519.28125 341.492188 526.421875 315.21875 533.4375 303.605469 L 570.867188 246.796875 L 542.128906 208.488281 C 533.613281 197.117188 528.8125 183.867188 528.25 170.140625 C 527.546875 153.296875 533.28125 141.101562 544.835938 134.90625 C 551.730469 131.210938 558.996094 129.328125 566.4375 129.328125 C 586.292969 129.328125 600.433594 142.386719 604.304688 146.382812 C 608.367188 150.589844 616.40625 160.390625 624.179688 169.859375 C 626.097656 172.179688 628.03125 174.558594 629.863281 176.757812 C 631.601562 174.664062 633.46875 172.375 635.402344 170.035156 C 635.402344 170.035156 635.628906 169.753906 635.628906 169.753906 C 643.386719 160.320312 651.40625 150.554688 655.417969 146.382812 C 659.269531 142.386719 673.429688 129.328125 693.289062 129.328125 C 700.726562 129.328125 707.992188 131.210938 714.886719 134.90625 C 726.441406 141.121094 732.175781 153.296875 731.472656 170.140625 C 730.910156 183.867188 726.109375 197.117188 717.59375 208.46875 L 688.871094 246.796875 L 726.089844 303.269531 C 733.230469 315.078125 740.460938 341.476562 717.3125 357.753906 C 711.84375 361.589844 705.441406 363.542969 698.246094 363.542969 Z M 698.246094 363.542969 " fill-opacity="1" fill-rule="nonzero"/></g><path fill="#ffb000" d="M 698.246094 360.21875 C 674.835938 360.21875 646.886719 337.710938 629.863281 314.269531 C 612.835938 337.710938 584.867188 360.21875 561.476562 360.21875 C 554.984375 360.21875 549.214844 358.476562 544.328125 355.042969 C 523.167969 340.191406 529.796875 316.011719 536.269531 305.3125 L 574.914062 246.675781 L 544.765625 206.480469 C 536.65625 195.65625 532.101562 183.039062 531.554688 169.980469 C 530.90625 154.496094 536.042969 143.371094 546.402344 137.8125 C 552.804688 134.378906 559.539062 132.636719 566.4375 132.636719 C 584.992188 132.636719 598.289062 144.921875 601.914062 148.667969 C 605.871094 152.769531 613.875 162.519531 621.613281 171.953125 C 624.445312 175.417969 627.363281 178.957031 629.84375 181.929688 C 632.21875 179.078125 635.015625 175.664062 637.933594 172.109375 L 638.058594 171.953125 C 645.832031 162.484375 653.835938 152.753906 657.773438 148.667969 C 661.417969 144.902344 674.714844 132.621094 693.253906 132.621094 C 700.148438 132.621094 706.882812 134.363281 713.285156 137.792969 C 723.644531 143.355469 728.78125 154.476562 728.132812 169.964844 C 727.585938 183.023438 723.03125 195.640625 714.921875 206.445312 L 684.808594 246.675781 L 723.3125 305.082031 C 729.871094 315.941406 736.539062 340.175781 715.398438 355.027344 C 710.507812 358.476562 704.738281 360.21875 698.246094 360.21875 Z M 698.246094 360.21875 " fill-opacity="1" fill-rule="nonzero"/><path fill="#fdc500" d="M 698.246094 356.910156 C 675.171875 356.910156 646.324219 332.992188 629.863281 308.480469 C 613.398438 332.992188 584.550781 356.910156 561.476562 356.910156 C 555.6875 356.910156 550.550781 355.363281 546.226562 352.335938 C 527.070312 338.890625 533.191406 316.820312 539.101562 307.035156 L 578.957031 246.570312 L 547.421875 204.507812 C 539.71875 194.214844 535.375 182.246094 534.863281 169.859375 C 534.28125 155.726562 538.804688 145.660156 547.96875 140.75 C 553.878906 137.582031 560.085938 135.964844 566.4375 135.964844 C 583.671875 135.964844 596.125 147.472656 599.539062 150.992188 C 603.390625 154.988281 611.359375 164.683594 619.0625 174.0625 C 623.125 179.007812 627.03125 183.761719 629.863281 187.105469 C 632.695312 183.761719 636.582031 179.027344 640.644531 174.082031 C 648.347656 164.703125 656.316406 154.988281 660.183594 150.992188 C 663.597656 147.472656 676.03125 135.964844 693.289062 135.964844 C 699.621094 135.964844 705.847656 137.582031 711.757812 140.75 C 720.921875 145.679688 725.441406 155.746094 724.859375 169.859375 C 724.351562 182.246094 720.003906 194.214844 712.300781 204.492188 L 680.765625 246.550781 L 720.550781 306.914062 C 726.53125 316.804688 732.632812 338.871094 713.496094 352.316406 C 709.171875 355.363281 704.035156 356.910156 698.246094 356.910156 Z M 698.246094 356.910156 " fill-opacity="1" fill-rule="nonzero"/><path fill="#ffd12f" d="M 711.582031 349.605469 C 689.910156 364.828125 648.859375 333.574219 629.84375 302.320312 C 610.832031 333.574219 569.777344 364.828125 548.109375 349.605469 C 526.4375 334.382812 541.917969 308.742188 541.917969 308.742188 L 582.988281 246.429688 L 550.078125 202.503906 C 542.953125 193 538.679688 181.597656 538.1875 169.71875 C 537.765625 159.5625 539.964844 148.8125 549.550781 143.671875 C 570.445312 132.460938 589.476562 145.328125 597.164062 153.296875 C 603.707031 160.074219 623.390625 184.921875 629.878906 192.171875 C 636.351562 184.921875 656.050781 160.074219 662.59375 153.296875 C 670.261719 145.328125 689.292969 132.460938 710.191406 143.671875 C 719.777344 148.8125 721.976562 159.582031 721.554688 169.71875 C 721.0625 181.597656 716.785156 193 709.664062 202.503906 L 676.71875 246.429688 L 717.789062 308.742188 C 717.789062 308.742188 733.265625 334.382812 711.582031 349.605469 Z M 711.582031 349.605469 " fill-opacity="1" fill-rule="nonzero"/><path fill="#ffe074" d="M 551.097656 166.003906 C 555.566406 163.011719 569.265625 175.648438 581.683594 194.230469 C 594.121094 212.816406 600.574219 230.308594 596.109375 233.300781 C 591.640625 236.292969 577.9375 223.65625 565.519531 205.074219 C 553.085938 186.472656 546.628906 168.976562 551.097656 166.003906 Z M 547.367188 332.238281 C 549.917969 337.851562 555.953125 340.613281 560.84375 338.398438 C 565.730469 336.179688 567.632812 329.808594 565.082031 324.195312 C 562.53125 318.582031 556.496094 315.816406 551.609375 318.035156 C 546.71875 320.269531 544.820312 326.625 547.367188 332.238281 Z M 547.367188 332.238281 " fill-opacity="1" fill-rule="nonzero"/><g clip-path="url(#f53f0765f5)"><path fill="#c2083d" d="M 374.964844 680.328125 C 333.28125 680.328125 303.335938 665.816406 285.925781 637.210938 C 274.5 618.441406 268.953125 594.394531 268.953125 563.703125 L 268.953125 497.011719 C 268.953125 476.910156 287.136719 447.078125 312.269531 447.078125 C 346.53125 447.078125 355.589844 479.730469 355.589844 497.011719 L 355.589844 563.71875 C 355.589844 568.960938 356.394531 595.113281 372.386719 595.113281 C 384.777344 595.113281 389.183594 578.199219 389.183594 563.71875 L 389.183594 497.011719 C 389.183594 477.699219 401.679688 447.078125 435.21875 447.078125 C 464.601562 447.078125 475.042969 473.980469 475.042969 497.011719 C 475.042969 504.96875 475.167969 510.296875 475.324219 516.484375 C 475.554688 525.933594 475.835938 537.585938 475.835938 563.703125 C 475.835938 577.550781 475.835938 606.347656 463.390625 631.8125 C 447.628906 664.011719 417.894531 680.328125 374.964844 680.328125 Z M 374.964844 680.328125 " fill-opacity="1" fill-rule="nonzero"/></g><path fill="#cf0942" d="M 374.964844 677.03125 C 334.527344 677.03125 305.511719 663.0625 288.75 635.511719 C 277.660156 617.265625 272.253906 593.78125 272.253906 563.71875 L 272.253906 497.011719 C 272.253906 478.242188 289.050781 450.390625 312.269531 450.390625 C 343.917969 450.390625 352.289062 480.886719 352.289062 497.011719 L 352.289062 563.71875 C 352.289062 569.523438 353.253906 598.425781 372.386719 598.425781 C 387.214844 598.425781 392.480469 579.742188 392.480469 563.71875 L 392.480469 497.011719 C 392.480469 478.996094 404.082031 450.390625 435.203125 450.390625 C 462.144531 450.390625 471.710938 475.507812 471.710938 497.011719 C 471.710938 505.039062 471.832031 510.421875 471.992188 516.660156 C 472.21875 526.019531 472.5 537.640625 472.5 563.71875 C 472.5 577.320312 472.5 605.59375 460.390625 630.394531 C 445.257812 661.328125 416.527344 677.03125 374.964844 677.03125 Z M 374.964844 677.03125 " fill-opacity="1" fill-rule="nonzero"/><path fill="#eb104f" d="M 374.964844 673.738281 C 335.753906 673.738281 307.707031 660.292969 291.578125 633.792969 C 280.800781 616.074219 275.570312 593.148438 275.570312 563.703125 L 275.570312 497.011719 C 275.570312 479.976562 291.332031 453.6875 312.269531 453.6875 C 341.300781 453.6875 348.972656 482.027344 348.972656 497.011719 L 348.972656 563.71875 C 348.972656 570.066406 350.09375 601.71875 372.386719 601.71875 C 389.65625 601.71875 395.800781 581.246094 395.800781 563.71875 L 395.800781 497.011719 C 395.800781 480.257812 406.503906 453.6875 435.21875 453.6875 C 459.722656 453.6875 468.425781 477.03125 468.425781 497.011719 C 468.425781 505.058594 468.550781 510.472656 468.707031 516.730469 C 468.9375 526.109375 469.21875 537.761719 469.21875 563.703125 C 469.199219 590.921875 469.199219 673.738281 374.964844 673.738281 Z M 374.964844 673.738281 " fill-opacity="1" fill-rule="nonzero"/><path fill="#eb104f" d="M 345.671875 497.011719 C 345.671875 513.679688 345.671875 544.738281 345.671875 563.71875 C 345.671875 582.683594 352.359375 605.03125 372.386719 605.03125 C 392.410156 605.03125 399.097656 582.457031 399.097656 563.71875 C 399.097656 538.21875 399.097656 509.984375 399.097656 497.011719 C 399.097656 484.042969 406.925781 457 435.203125 457 C 463.476562 457 465.09375 490.351562 465.09375 497.011719 C 465.09375 517.027344 465.882812 520.234375 465.882812 563.71875 C 465.882812 602.261719 459.808594 670.441406 374.949219 670.441406 C 288.242188 670.441406 278.851562 603.734375 278.851562 563.71875 C 278.851562 535.660156 278.851562 529.4375 278.851562 497.011719 C 278.851562 482.238281 293.105469 457 312.253906 457 C 338.984375 456.980469 345.671875 483.445312 345.671875 497.011719 Z M 345.671875 497.011719 " fill-opacity="1" fill-rule="nonzero"/><path fill="#ff5082" d="M 300.792969 605.804688 C 297.527344 605.875 294.789062 602.15625 294.667969 597.511719 C 294.5625 592.851562 297.125 589.011719 300.386719 588.941406 C 303.652344 588.871094 306.390625 592.585938 306.515625 597.230469 C 306.621094 601.878906 304.074219 605.734375 300.792969 605.804688 Z M 290.894531 541.355469 C 290.894531 563.632812 295.246094 581.6875 300.597656 581.6875 C 305.96875 581.6875 310.304688 563.632812 310.304688 541.355469 C 310.304688 519.078125 305.953125 501.027344 300.597656 501.027344 C 295.226562 501.027344 290.894531 519.078125 290.894531 541.355469 Z M 290.894531 541.355469 " fill-opacity="1" fill-rule="nonzero"/><g clip-path="url(#0734ded994)"><path fill="#ff9900" d="M 717.515625 676.054688 C 674.710938 676.054688 669.917969 627.265625 667.078125 598.125 L 667.042969 597.84375 C 666.761719 594.984375 666.515625 592.410156 666.234375 590.0625 C 665.65625 585.085938 664.933594 583.386719 664.550781 582.808594 C 663.988281 582.945312 663.109375 583.457031 662.582031 584.171875 C 660.707031 586.75 660.390625 591.253906 660.320312 594.425781 C 660.125 602.785156 657.320312 676.070312 618.53125 676.070312 C 617.9375 676.070312 617.355469 676.054688 616.796875 676.019531 C 616.234375 676.054688 615.65625 676.070312 615.058594 676.070312 C 592.699219 676.070312 584.117188 649.207031 579.503906 634.765625 L 579.257812 633.976562 C 576.535156 625.480469 575.886719 616.839844 575.253906 608.480469 C 574.570312 599.4375 573.921875 590.902344 570.710938 584.015625 C 570.570312 583.71875 570.429688 583.457031 570.324219 583.246094 C 569.867188 583.664062 569.359375 584.261719 568.917969 585.050781 C 565.179688 591.847656 564.601562 601.261719 563.96875 611.214844 C 563.390625 620.625 562.777344 630.367188 559.476562 639.570312 C 554.617188 653.203125 542.507812 676.054688 516.09375 676.054688 C 508.863281 676.054688 502.527344 673.355469 497.210938 668.046875 C 476.957031 647.734375 477.257812 586.996094 477.535156 533.40625 L 477.535156 533.054688 C 477.570312 527.042969 477.589844 521.136719 477.589844 515.40625 C 477.589844 444.855469 527.625 442.820312 533.328125 442.820312 L 533.800781 442.820312 C 576.976562 442.820312 592.59375 480.132812 605.160156 510.097656 L 605.265625 510.359375 C 606.738281 513.882812 608.179688 517.316406 609.636719 520.628906 C 611.390625 524.609375 614.636719 527.851562 616.867188 527.851562 C 616.9375 527.851562 617.023438 527.851562 617.113281 527.832031 C 618.183594 527.726562 619.972656 526.660156 621.480469 524.484375 C 623.339844 521.804688 624.605469 518.140625 625.9375 514.25 L 626.042969 513.9375 C 641.910156 467.410156 667.480469 442.820312 699.964844 442.820312 L 700.175781 442.820312 C 705.933594 442.820312 755.984375 444.855469 755.984375 515.40625 C 755.984375 521.136719 756.019531 527.042969 756.035156 533.054688 L 756.035156 533.386719 C 756.300781 586.976562 756.617188 647.71875 736.382812 668.027344 C 731.082031 673.355469 724.746094 676.054688 717.515625 676.054688 Z M 717.515625 676.054688 " fill-opacity="1" fill-rule="nonzero"/></g><path fill="#ffb000" d="M 717.515625 672.742188 C 677.710938 672.742188 673.113281 625.828125 670.359375 597.789062 C 670.058594 594.8125 669.796875 592.113281 669.515625 589.660156 C 669.058594 585.664062 668.234375 580.914062 666.003906 579.703125 C 665.671875 579.53125 665.285156 579.441406 664.828125 579.441406 C 663.144531 579.441406 661.074219 580.597656 659.898438 582.210938 C 657.511719 585.488281 657.089844 590.414062 657.003906 594.335938 C 656.808594 602.363281 654.160156 672.757812 618.515625 672.757812 C 617.902344 672.757812 617.339844 672.742188 616.777344 672.691406 C 616.214844 672.722656 615.636719 672.757812 615.039062 672.757812 C 595.105469 672.757812 586.996094 647.382812 582.625 633.75 L 582.378906 632.960938 C 579.78125 624.847656 579.132812 616.402344 578.519531 608.234375 C 577.816406 598.875 577.148438 590.0625 573.675781 582.613281 C 572.675781 580.476562 571.710938 579.496094 571.128906 579.300781 C 571.023438 579.265625 570.957031 579.25 570.832031 579.25 C 569.796875 579.25 567.460938 580.738281 565.972656 583.457031 C 561.882812 590.902344 561.265625 600.664062 560.617188 611.003906 C 560.039062 620.203125 559.441406 629.683594 556.320312 638.464844 C 551.738281 651.273438 540.4375 672.757812 516.058594 672.757812 C 509.742188 672.757812 504.175781 670.394531 499.527344 665.714844 C 480.273438 646.367188 480.574219 586.363281 480.835938 533.421875 L 480.835938 533.074219 C 480.871094 527.0625 480.890625 521.15625 480.890625 515.40625 C 480.890625 448.0625 527.957031 446.117188 533.308594 446.117188 L 533.75 446.117188 C 574.746094 446.117188 589.910156 482.285156 602.089844 511.359375 L 602.210938 511.640625 C 603.6875 515.164062 605.140625 518.632812 606.617188 521.960938 C 608.566406 526.394531 612.601562 531.144531 616.867188 531.144531 C 617.042969 531.144531 617.214844 531.144531 617.390625 531.128906 C 619.726562 530.917969 622.253906 529.128906 624.183594 526.378906 C 626.308594 523.3125 627.640625 519.4375 629.046875 515.320312 L 629.152344 515.003906 C 644.542969 469.949219 669.023438 446.132812 699.964844 446.132812 L 700.210938 446.132812 C 705.617188 446.132812 752.667969 448.078125 752.667969 515.425781 C 752.667969 521.15625 752.703125 527.0625 752.71875 533.089844 L 752.71875 533.421875 C 752.984375 586.382812 753.28125 646.386719 734.027344 665.714844 C 729.394531 670.375 723.832031 672.742188 717.515625 672.742188 Z M 717.515625 672.742188 " fill-opacity="1" fill-rule="nonzero"/><path fill="#fdc500" d="M 717.515625 669.449219 C 680.710938 669.449219 676.289062 624.390625 673.65625 597.476562 C 673.375 594.546875 673.097656 591.796875 672.816406 589.289062 C 672.199219 583.945312 671.148438 578.722656 667.601562 576.8125 C 666.777344 576.375 665.867188 576.148438 664.847656 576.148438 C 662.09375 576.148438 659.039062 577.8125 657.25 580.265625 C 654.316406 584.296875 653.808594 589.851562 653.703125 594.25 C 653.632812 597.316406 651.5625 669.449219 618.515625 669.449219 C 617.902344 669.449219 617.339844 669.429688 616.777344 669.378906 C 616.214844 669.429688 615.636719 669.449219 615.039062 669.449219 C 597.527344 669.449219 589.890625 645.5625 585.785156 632.734375 L 585.539062 631.945312 C 583.046875 624.199219 582.433594 615.929688 581.820312 607.953125 C 581.082031 598.296875 580.398438 589.203125 576.675781 581.210938 C 575.378906 578.441406 573.886719 576.761719 572.234375 576.183594 C 571.78125 576.023438 571.324219 575.953125 570.851562 575.953125 C 568.234375 575.953125 564.96875 578.441406 563.09375 581.878906 C 558.652344 589.972656 558.019531 600.101562 557.355469 610.8125 C 556.792969 619.765625 556.214844 629.035156 553.246094 637.359375 C 548.964844 649.347656 538.453125 669.464844 516.09375 669.464844 C 510.6875 669.464844 505.914062 667.414062 501.914062 663.402344 C 483.574219 645.019531 483.890625 585.734375 484.152344 533.421875 C 484.1875 527.289062 484.222656 521.261719 484.222656 515.40625 C 484.222656 451.269531 528.328125 449.429688 533.34375 449.429688 L 533.730469 449.429688 C 572.570312 449.429688 587.257812 484.476562 599.050781 512.640625 C 600.578125 516.285156 602.070312 519.859375 603.597656 523.277344 C 606.054688 528.832031 611.109375 534.4375 616.882812 534.4375 C 617.164062 534.4375 617.445312 534.421875 617.726562 534.40625 C 621.058594 534.089844 624.414062 531.863281 626.921875 528.253906 C 629.328125 524.800781 630.730469 520.699219 632.203125 516.355469 L 632.308594 516.054688 C 647.175781 472.472656 670.570312 449.429688 699.964844 449.429688 L 700.246094 449.429688 C 705.265625 449.429688 749.367188 451.285156 749.367188 515.40625 C 749.367188 521.261719 749.402344 527.289062 749.421875 533.421875 C 749.683594 585.734375 749.980469 645.019531 731.695312 663.367188 C 727.695312 667.398438 722.921875 669.449219 717.515625 669.449219 Z M 717.515625 669.449219 " fill-opacity="1" fill-rule="nonzero"/><path fill="#ffd12f" d="M 717.515625 666.136719 C 680.046875 666.136719 679.0625 614.683594 676.097656 588.90625 C 675.449219 583.210938 674.21875 576.636719 669.183594 573.90625 C 664.304688 571.257812 657.84375 573.835938 654.5625 578.320312 C 651.28125 582.808594 650.527344 588.625 650.386719 594.179688 C 649.984375 611.6875 644.488281 666.152344 618.515625 666.152344 C 617.917969 666.152344 617.339844 666.117188 616.777344 666.066406 C 616.199219 666.136719 615.621094 666.152344 615.039062 666.152344 C 599.597656 666.152344 592.332031 642.355469 588.679688 630.945312 C 583.414062 614.507812 586.90625 595.300781 579.675781 579.828125 C 578.324219 576.953125 576.324219 574.113281 573.324219 573.0625 C 568.183594 571.277344 562.8125 575.515625 560.195312 580.265625 C 551.476562 596.144531 556.386719 618.695312 550.125 636.222656 C 544.648438 651.539062 533.890625 666.136719 516.09375 666.136719 C 483.871094 666.136719 487.539062 579.636719 487.539062 515.40625 C 487.539062 451.179688 533.644531 452.722656 533.644531 452.722656 C 575.097656 452.722656 587.171875 494.238281 600.578125 524.625 C 603.722656 531.722656 610.285156 538.417969 618.023438 537.699219 C 622.78125 537.261719 626.90625 534.054688 629.625 530.144531 C 632.34375 526.238281 633.890625 521.648438 635.417969 517.144531 C 645.3125 488.121094 664.550781 452.722656 699.964844 452.722656 C 699.964844 452.722656 746.070312 451.179688 746.070312 515.40625 C 746.070312 579.636719 749.71875 666.136719 717.515625 666.136719 Z M 717.515625 666.136719 " fill-opacity="1" fill-rule="nonzero"/><path fill="#ffe074" d="M 509.988281 591.988281 C 506.722656 592.058594 503.984375 588.34375 503.863281 583.699219 C 503.757812 579.039062 506.320312 575.203125 509.582031 575.132812 C 512.847656 575.0625 515.585938 578.777344 515.707031 583.421875 C 515.8125 588.082031 513.25 591.917969 509.988281 591.988281 Z M 500.070312 529.65625 C 500.070312 551.929688 504.421875 569.980469 509.777344 569.980469 C 515.144531 569.980469 519.480469 551.929688 519.480469 529.65625 C 519.480469 507.382812 515.128906 489.332031 509.777344 489.332031 C 504.421875 489.332031 500.070312 507.382812 500.070312 529.65625 Z M 500.070312 529.65625 " fill-opacity="1" fill-rule="nonzero"/><g clip-path="url(#5adf425467)"><path fill="#ff9900" d="M 240.480469 674.277344 C 209.230469 674.277344 180.746094 637.519531 165.472656 613.472656 C 165.261719 629.601562 162.472656 650.164062 151.195312 662.667969 C 144.25 670.371094 135.183594 674.277344 124.273438 674.277344 C 108.964844 674.277344 96.898438 669.585938 88.445312 660.355469 C 75.851562 646.625 76.308594 628.042969 76.570312 624.136719 L 76.570312 519.566406 C 76.570312 444.746094 121.800781 441.332031 123.730469 441.226562 C 123.996094 441.210938 123.996094 441.210938 186.042969 441.210938 C 186.972656 441.246094 269.769531 444.609375 269.769531 520.109375 C 269.769531 545.605469 257.246094 567.691406 238.132812 576.765625 C 243.988281 582.945312 250.652344 589.617188 256.179688 595.136719 C 261.28125 600.230469 265.296875 604.242188 267.28125 606.484375 C 274.3125 614.433594 282.851562 637.550781 274.855469 655.292969 C 270.945312 663.964844 261.808594 674.277344 240.480469 674.277344 Z M 163.140625 541.175781 C 190.078125 540.894531 194.25 536.324219 194.25 521.773438 C 194.25 517.953125 194.25 510.824219 175.136719 510.824219 C 171.609375 510.824219 167.75 511.105469 163.648438 511.667969 Z M 163.140625 541.175781 " fill-opacity="1" fill-rule="nonzero"/></g><path fill="#ffb000" d="M 240.480469 670.984375 C 205.457031 670.984375 173.152344 620.773438 161.839844 601.089844 C 162.894531 617.585938 162.296875 645.417969 148.742188 660.460938 C 142.445312 667.449219 134.203125 670.984375 124.273438 670.984375 C 109.929688 670.984375 98.6875 666.660156 90.882812 658.132812 C 78.921875 645.082031 79.695312 626.871094 79.871094 624.242188 L 79.871094 519.566406 C 79.871094 447.8125 122.117188 444.625 123.90625 444.519531 C 124.046875 444.519531 124.066406 444.519531 186.042969 444.503906 C 186.957031 444.539062 266.457031 447.953125 266.457031 520.089844 C 266.457031 546.203125 252.792969 568.445312 232.449219 575.519531 C 239.007812 582.648438 247.214844 590.863281 253.828125 597.464844 C 258.914062 602.542969 262.878906 606.519531 264.789062 608.671875 C 271.136719 615.855469 279.152344 637.710938 271.820312 653.925781 C 268.332031 661.722656 260.035156 670.984375 240.480469 670.984375 Z M 160.386719 544.488281 C 189.902344 544.488281 197.546875 539.808594 197.546875 521.773438 C 197.546875 517.515625 197.546875 507.535156 175.117188 507.535156 C 169.769531 507.535156 164.472656 508.164062 160.367188 508.828125 L 159.773438 544.503906 Z M 160.386719 544.488281 " fill-opacity="1" fill-rule="nonzero"/><path fill="#fdc500" d="M 240.480469 667.691406 C 205.386719 667.691406 172.398438 613.296875 163.121094 596.625 C 162.191406 594.960938 160.4375 593.925781 158.527344 593.925781 C 158.265625 593.925781 158.160156 593.980469 158.070312 594.066406 C 157.984375 594.15625 157.964844 594.257812 157.964844 594.382812 C 159.402344 608.09375 161.15625 641.757812 146.285156 658.253906 C 140.636719 664.503906 133.238281 667.691406 124.273438 667.691406 C 110.894531 667.691406 100.476562 663.734375 93.320312 655.90625 C 82.097656 643.648438 83.027344 626.34375 83.183594 624.363281 L 83.183594 519.566406 C 83.183594 450.878906 122.433594 447.917969 124.101562 447.8125 C 124.152344 447.8125 186.042969 447.8125 186.042969 447.8125 C 186.9375 447.847656 263.15625 451.367188 263.15625 520.109375 C 263.15625 544.90625 250.300781 565.957031 231.1875 572.492188 C 230.132812 572.859375 229.363281 573.664062 229.097656 574.730469 C 228.835938 575.730469 229.097656 576.746094 229.820312 577.515625 C 236.449219 584.730469 244.8125 593.105469 251.53125 599.828125 C 256.546875 604.835938 260.507812 608.796875 262.351562 610.878906 C 268.050781 617.308594 275.503906 637.867188 268.859375 652.597656 C 265.71875 659.480469 258.28125 667.691406 240.480469 667.691406 Z M 156.457031 545.328125 C 156.441406 545.976562 156.683594 546.589844 157.140625 547.042969 C 157.597656 547.515625 158.210938 547.761719 158.859375 547.761719 L 160.367188 547.761719 C 188.359375 547.761719 200.847656 543.996094 200.847656 521.738281 C 200.847656 517.394531 200.847656 504.1875 175.117188 504.1875 C 168.296875 504.1875 161.578125 505.167969 157.140625 505.992188 L 157.105469 505.992188 Z M 156.457031 545.328125 " fill-opacity="1" fill-rule="nonzero"/><path fill="#ffd12f" d="M 259.859375 613.050781 C 255.652344 608.289062 238.902344 592.316406 227.378906 579.742188 C 224.222656 576.308594 225.714844 570.863281 230.117188 569.355469 C 246.671875 563.699219 259.859375 544.644531 259.859375 520.109375 C 259.859375 453.75 186.042969 451.121094 186.042969 451.121094 L 124.273438 451.121094 C 124.273438 451.121094 86.480469 453.222656 86.480469 519.582031 C 86.480469 585.941406 86.480469 624.503906 86.480469 624.503906 C 86.480469 624.503906 82.921875 664.402344 124.273438 664.402344 C 159.367188 664.402344 156.386719 610.933594 154.6875 594.734375 C 154.457031 592.5625 156.160156 590.652344 158.332031 590.632812 L 158.421875 590.632812 C 161.5625 590.597656 164.472656 592.28125 165.996094 595.03125 C 174.890625 611.019531 207.089844 664.402344 240.480469 664.402344 C 279.75 664.382812 268.226562 622.507812 259.859375 613.050781 Z M 158.859375 551.089844 C 155.667969 551.070312 153.109375 548.460938 153.160156 545.273438 L 153.808594 505.695312 C 153.898438 504.957031 154.210938 504.292969 154.6875 503.785156 C 155.160156 503.261719 155.808594 502.910156 156.546875 502.769531 C 171.503906 500.003906 204.160156 496.816406 204.160156 521.773438 C 204.160156 549.460938 184.640625 551.160156 158.859375 551.089844 Z M 158.859375 551.089844 " fill-opacity="1" fill-rule="nonzero"/><path fill="#ffe074" d="M 110.507812 599.8125 C 107.246094 599.882812 104.511719 596.167969 104.386719 591.527344 C 104.28125 586.867188 106.84375 583.035156 110.105469 582.964844 C 113.367188 582.894531 116.101562 586.605469 116.226562 591.246094 C 116.332031 595.886719 113.769531 599.742188 110.507812 599.8125 Z M 100.597656 535.449219 C 100.597656 557.710938 104.949219 575.746094 110.296875 575.746094 C 115.664062 575.746094 119.996094 557.710938 119.996094 535.449219 C 119.996094 513.191406 115.648438 495.152344 110.296875 495.152344 C 104.949219 495.152344 100.597656 513.191406 100.597656 535.449219 Z M 100.597656 535.449219 " fill-opacity="1" fill-rule="nonzero"/><g clip-path="url(#9a6e5d7cd6)"><path fill="#c2083d" d="M 1329.78125 677.550781 C 1329.429688 677.550781 1329.179688 677.550781 1329.039062 677.535156 L 1221.667969 677.535156 C 1157.933594 677.550781 1156.683594 645.382812 1156.664062 644.007812 L 1156.664062 508.058594 C 1156.664062 447.230469 1188.371094 442.839844 1240.597656 442.839844 C 1248.226562 442.839844 1256.617188 442.964844 1265.484375 443.070312 L 1265.886719 443.070312 C 1276.324219 443.210938 1288.167969 443.371094 1300.785156 443.371094 C 1339.898438 443.371094 1359.742188 455.621094 1359.742188 479.75 C 1359.742188 498.0625 1347.742188 516.554688 1320.914062 516.554688 L 1249.054688 516.554688 L 1249.039062 517.648438 C 1254.328125 517.046875 1259.507812 516.75 1264.390625 516.75 C 1295.253906 516.75 1313.6875 530.195312 1313.6875 552.707031 C 1313.6875 574.96875 1295.429688 588.238281 1264.867188 588.238281 C 1261.585938 588.238281 1258.132812 588.097656 1254.589844 587.835938 C 1254.398438 587.816406 1254.203125 587.816406 1254.007812 587.816406 C 1250.273438 587.816406 1247.257812 590.742188 1247.171875 594.480469 C 1247.046875 599.34375 1247.824219 602.550781 1248.4375 603.945312 L 1323.117188 603.945312 C 1330.855469 603.945312 1338.363281 605.832031 1344.832031 609.375 C 1353.769531 614.292969 1364.414062 624.074219 1364.414062 642.792969 C 1364.394531 670.238281 1342.648438 677.550781 1329.78125 677.550781 Z M 1329.78125 677.550781 " fill-opacity="1" fill-rule="nonzero"/></g><path fill="#cf0942" d="M 1329.179688 674.222656 L 1221.667969 674.222656 C 1161.175781 674.222656 1160.011719 645.191406 1159.996094 643.957031 L 1159.996094 508.058594 C 1159.996094 452.269531 1185.816406 446.171875 1240.597656 446.171875 C 1248.226562 446.171875 1256.617188 446.296875 1265.5 446.402344 C 1276.109375 446.542969 1288.007812 446.703125 1300.769531 446.703125 C 1338.207031 446.703125 1356.394531 457.523438 1356.394531 479.769531 C 1356.394531 496.425781 1345.414062 513.242188 1320.878906 513.242188 L 1248.050781 513.242188 C 1246.835938 513.242188 1245.796875 514.261719 1245.761719 515.480469 L 1245.707031 518.105469 C 1245.691406 518.898438 1245.972656 519.621094 1246.519531 520.183594 C 1247.082031 520.75 1247.789062 521.066406 1248.5625 521.066406 C 1248.6875 521.066406 1248.808594 521.066406 1248.914062 521.050781 C 1254.273438 520.433594 1259.472656 520.113281 1264.390625 520.113281 C 1293.59375 520.113281 1310.355469 532.011719 1310.355469 552.742188 C 1310.355469 573.222656 1293.773438 584.960938 1264.847656 584.960938 C 1261.660156 584.960938 1258.273438 584.820312 1254.820312 584.554688 C 1254.539062 584.539062 1254.253906 584.519531 1253.992188 584.519531 C 1248.421875 584.519531 1243.980469 588.875 1243.839844 594.425781 C 1243.679688 601.089844 1245.019531 605.53125 1246.429688 606.976562 C 1246.746094 607.292969 1246.886719 607.292969 1247.101562 607.292969 L 1323.101562 607.292969 C 1330.292969 607.292969 1337.234375 609.039062 1343.210938 612.316406 C 1351.355469 616.792969 1361.066406 625.730469 1361.066406 642.828125 C 1361.066406 667.628906 1341.394531 674.238281 1329.761719 674.238281 C 1329.5 674.238281 1329.285156 674.222656 1329.179688 674.222656 Z M 1329.179688 674.222656 " fill-opacity="1" fill-rule="nonzero"/><path fill="#e10c49" d="M 1329.78125 670.90625 C 1329.429688 670.90625 1329.25 670.890625 1329.25 670.890625 L 1221.667969 670.890625 C 1164.417969 670.890625 1163.328125 644.996094 1163.308594 643.886719 L 1163.308594 508.039062 C 1163.308594 455.003906 1186.855469 449.46875 1240.597656 449.46875 C 1248.226562 449.46875 1256.636719 449.59375 1265.535156 449.699219 C 1276.058594 449.839844 1287.972656 449.996094 1300.785156 449.996094 C 1335.984375 449.996094 1353.097656 459.726562 1353.097656 479.734375 C 1353.097656 494.734375 1343.140625 509.890625 1320.914062 509.890625 L 1248.050781 509.890625 C 1245.019531 509.890625 1242.515625 512.359375 1242.445312 515.375 L 1242.394531 518 C 1242.359375 519.675781 1242.976562 521.277344 1244.15625 522.476562 C 1245.335938 523.675781 1246.90625 524.34375 1248.582031 524.34375 C 1248.828125 524.34375 1249.054688 524.328125 1249.304688 524.308594 C 1254.539062 523.710938 1259.632812 523.394531 1264.40625 523.394531 C 1291.902344 523.394531 1307.0625 533.792969 1307.0625 552.707031 C 1307.0625 571.335938 1292.078125 581.59375 1264.882812 581.59375 C 1261.765625 581.59375 1258.484375 581.453125 1255.121094 581.207031 C 1254.75 581.171875 1254.398438 581.171875 1254.027344 581.171875 C 1246.640625 581.171875 1240.738281 586.953125 1240.5625 594.320312 C 1240.402344 601.25 1241.722656 606.835938 1244.101562 609.269531 C 1244.984375 610.167969 1245.953125 610.589844 1247.152344 610.589844 L 1323.152344 610.589844 C 1329.78125 610.589844 1336.179688 612.175781 1341.660156 615.207031 C 1349.027344 619.261719 1357.804688 627.335938 1357.804688 642.8125 C 1357.75 670.113281 1332.652344 670.90625 1329.78125 670.90625 Z M 1329.78125 670.90625 " fill-opacity="1" fill-rule="nonzero"/><path fill="#eb104f" d="M 1354.4375 642.828125 C 1354.4375 668.617188 1329.390625 667.59375 1329.390625 667.59375 C 1329.390625 667.59375 1276.304688 667.59375 1221.667969 667.59375 C 1167.027344 667.59375 1166.621094 643.867188 1166.621094 643.867188 C 1166.621094 643.867188 1166.621094 572.675781 1166.621094 508.074219 C 1166.621094 443.441406 1200.164062 453.347656 1300.769531 453.347656 C 1341.359375 453.347656 1349.75 466.355469 1349.75 479.769531 C 1349.75 493.183594 1341.023438 506.59375 1320.898438 506.59375 L 1248.050781 506.59375 C 1243.203125 506.59375 1239.238281 510.472656 1239.117188 515.320312 C 1239.097656 516.167969 1239.082031 517.046875 1239.0625 517.929688 C 1238.921875 523.710938 1243.925781 528.277344 1249.671875 527.605469 C 1268.160156 525.472656 1303.710938 524.960938 1303.710938 552.707031 C 1303.710938 577.453125 1274.914062 579.410156 1255.347656 577.894531 C 1245.691406 577.152344 1237.441406 584.554688 1237.210938 594.25 C 1236.929688 605.847656 1240.402344 613.921875 1247.117188 613.921875 L 1323.117188 613.921875 C 1329.003906 613.921875 1334.855469 615.277344 1340.019531 618.117188 C 1347.035156 621.996094 1354.4375 629.273438 1354.4375 642.828125 Z M 1354.4375 642.828125 " fill-opacity="1" fill-rule="nonzero"/><path fill="#ff5082" d="M 1189.429688 626.628906 C 1186.152344 626.699219 1183.402344 622.964844 1183.277344 618.292969 C 1183.171875 613.605469 1185.746094 609.742188 1189.023438 609.671875 C 1192.300781 609.601562 1195.050781 613.339844 1195.175781 618.011719 C 1195.28125 622.699219 1192.726562 626.558594 1189.429688 626.628906 Z M 1179.488281 552.40625 C 1179.488281 579.671875 1183.859375 601.777344 1189.234375 601.777344 C 1194.628906 601.777344 1198.984375 579.671875 1198.984375 552.40625 C 1198.984375 525.136719 1194.613281 503.035156 1189.234375 503.035156 C 1183.84375 503.035156 1179.488281 525.136719 1179.488281 552.40625 Z M 1179.488281 552.40625 " fill-opacity="1" fill-rule="nonzero"/><g clip-path="url(#b6064e8d11)"><path fill="#ff9900" d="M 1008.617188 674.351562 C 977.0625 674.351562 967.179688 651.621094 964.40625 641.859375 C 963.636719 639.125 963.230469 636.214844 963.25 633.234375 C 963.355469 606.230469 963.601562 539.332031 963.601562 501.40625 C 963.601562 453.824219 991.890625 441.121094 1008.617188 441.121094 C 1037.734375 441.121094 1056.5625 463.0625 1056.5625 497.007812 L 1056.5625 593.46875 C 1056.5625 594.066406 1057.074219 594.574219 1057.652344 594.574219 L 1079.167969 594.730469 C 1098.492188 594.871094 1120.394531 595.046875 1126.78125 595.046875 C 1152.6875 595.046875 1170.097656 612.222656 1170.097656 637.777344 C 1170.097656 655.371094 1153.527344 674.371094 1126.78125 674.371094 L 1008.617188 674.371094 Z M 1008.617188 674.351562 " fill-opacity="1" fill-rule="nonzero"/></g><path fill="#ffb000" d="M 1008.617188 671.058594 C 979.308594 671.058594 970.164062 650.007812 967.585938 640.964844 C 966.882812 638.527344 966.546875 635.933594 966.546875 633.269531 C 966.652344 606.28125 966.898438 539.402344 966.898438 501.425781 C 966.898438 456.417969 993.121094 444.414062 1008.617188 444.414062 C 1035.730469 444.414062 1053.246094 465.058594 1053.246094 496.992188 L 1053.246094 593.453125 C 1053.246094 595.871094 1055.210938 597.851562 1057.617188 597.871094 L 1079.132812 598.027344 C 1098.472656 598.167969 1120.394531 598.34375 1126.765625 598.34375 C 1150.703125 598.34375 1166.78125 614.1875 1166.78125 637.757812 C 1166.78125 653.757812 1151.476562 671.039062 1126.765625 671.039062 Z M 1008.617188 671.058594 " fill-opacity="1" fill-rule="nonzero"/><path fill="#fdc500" d="M 1008.617188 667.761719 C 981.570312 667.761719 973.148438 648.394531 970.777344 640.070312 C 970.164062 637.933594 969.867188 635.65625 969.867188 633.289062 C 969.972656 606.316406 970.214844 539.472656 970.214844 501.441406 C 970.214844 459.046875 994.347656 447.742188 1008.617188 447.742188 C 1033.714844 447.742188 1049.949219 467.09375 1049.949219 497.027344 L 1049.949219 593.488281 C 1049.949219 597.710938 1053.386719 601.164062 1057.617188 601.199219 L 1078.011719 601.355469 C 1097.824219 601.515625 1120.289062 601.671875 1126.800781 601.671875 C 1148.753906 601.671875 1163.496094 616.183594 1163.496094 637.792969 C 1163.496094 652.214844 1149.457031 667.78125 1126.800781 667.78125 L 1008.617188 667.78125 Z M 1008.617188 667.761719 " fill-opacity="1" fill-rule="nonzero"/><path fill="#ffd12f" d="M 1046.628906 497.007812 L 1046.628906 593.46875 C 1046.628906 599.515625 1051.507812 604.441406 1057.582031 604.476562 C 1077.660156 604.617188 1117.746094 604.949219 1126.78125 604.949219 C 1146.824219 604.949219 1160.179688 617.742188 1160.179688 637.757812 C 1160.179688 651.09375 1146.824219 664.433594 1126.78125 664.433594 C 1097.246094 664.433594 1041.101562 664.433594 1008.617188 664.433594 C 983.589844 664.433594 976.078125 646.609375 973.953125 639.140625 C 973.410156 637.230469 973.164062 635.25 973.183594 633.269531 C 973.234375 619.375 973.535156 543.292969 973.535156 501.40625 C 973.535156 464.339844 993.261719 451.003906 1008.632812 451.003906 C 1033.273438 451.019531 1046.628906 471.035156 1046.628906 497.007812 Z M 1046.628906 497.007812 " fill-opacity="1" fill-rule="nonzero"/><path fill="#ffe074" d="M 992.226562 593.839844 C 988.960938 593.910156 986.222656 590.191406 986.097656 585.546875 C 985.996094 580.886719 988.558594 577.046875 991.820312 576.980469 C 995.085938 576.910156 997.824219 580.625 997.945312 585.269531 C 998.050781 589.914062 995.488281 593.75 992.226562 593.839844 Z M 982.308594 531.480469 C 982.308594 553.757812 986.660156 571.808594 992.015625 571.808594 C 997.382812 571.808594 1001.71875 553.757812 1001.71875 531.480469 C 1001.71875 509.207031 997.382812 491.15625 992.03125 491.15625 C 986.660156 491.15625 982.308594 509.207031 982.308594 531.480469 Z M 982.308594 531.480469 " fill-opacity="1" fill-rule="nonzero"/><g clip-path="url(#dc6855dbfb)"><path fill="#c2083d" d="M 837.707031 676.578125 C 818.414062 676.578125 794.195312 673.925781 778.144531 653.222656 C 764.003906 634.996094 757.414062 604.859375 757.414062 558.378906 C 757.414062 530.84375 758.746094 512.773438 761.863281 497.914062 C 765.859375 478.984375 777.671875 462.355469 794.285156 452.257812 C 808.144531 443.847656 822.65625 442.773438 835.464844 441.84375 C 841.773438 441.371094 846.960938 441.160156 851.761719 441.160156 C 862.59375 441.160156 871.96875 442.320312 880.429688 444.6875 C 908.191406 452.503906 936.28125 478.054688 936.28125 511.769531 C 936.28125 523.449219 931.410156 534.003906 922.085938 542.589844 C 939.382812 547.824219 962.164062 561.660156 962.164062 598.257812 C 962.164062 648.761719 917.96875 676.578125 837.707031 676.578125 Z M 839.269531 582.4375 C 837.339844 595.097656 837.164062 602.367188 837.289062 606.039062 C 844.964844 605.40625 857.316406 601.523438 858.4375 593.480469 C 858.667969 591.867188 858.265625 590.636719 857.035156 589.230469 C 853.445312 585.050781 845.261719 582.542969 839.269531 582.4375 Z M 838.320312 511.542969 C 837.269531 518.128906 836.972656 521.585938 836.9375 523.414062 C 842.789062 523.328125 851.464844 519.671875 853.671875 512.894531 C 852.183594 512.316406 848.835938 511.457031 842.316406 511.457031 C 841.039062 511.4375 839.707031 511.472656 838.320312 511.542969 Z M 838.320312 511.542969 " fill-opacity="1" fill-rule="nonzero"/></g><path fill="#cf0942" d="M 837.707031 673.277344 C 819.167969 673.277344 795.929688 670.765625 780.753906 651.203125 C 767.085938 633.574219 760.707031 604.089844 760.707031 558.378906 C 760.707031 531.089844 762.023438 513.210938 765.089844 498.601562 C 768.890625 480.566406 780.140625 464.707031 795.984375 455.101562 C 809.160156 447.113281 823.25 446.078125 835.691406 445.164062 C 841.929688 444.707031 847.03125 444.476562 851.761719 444.476562 C 862.277344 444.476562 871.371094 445.601562 879.519531 447.886719 C 906.070312 455.367188 932.96875 479.707031 932.96875 511.789062 C 932.96875 524.484375 926.765625 535.566406 914.9375 544.207031 C 932.722656 547.929688 958.867188 559.921875 958.867188 598.277344 C 958.867188 646.636719 915.847656 673.277344 837.707031 673.277344 Z M 834.257812 609.410156 C 834.535156 609.425781 834.835938 609.425781 835.167969 609.425781 C 842.808594 609.425781 860.085938 605.527344 861.699219 593.921875 C 862.066406 591.355469 861.367188 589.179688 859.527344 587.035156 C 855.058594 581.890625 845.542969 579.097656 838.882812 579.097656 C 838.214844 579.097656 837.585938 579.132812 836.988281 579.1875 C 836.640625 579.222656 836.375 579.46875 836.324219 579.820312 C 833.519531 597.34375 833.746094 606.179688 834.257812 609.410156 Z M 833.976562 526.398438 C 834.308594 526.503906 835.183594 526.714844 836.726562 526.714844 C 843.683594 526.714844 854.988281 522.253906 857.160156 512.667969 C 857.421875 511.523438 857.195312 511.246094 857.125 511.15625 C 856.230469 510.03125 852.09375 508.136719 842.316406 508.136719 C 840.511719 508.136719 838.601562 508.207031 836.65625 508.328125 C 835.957031 508.382812 835.394531 508.875 835.289062 509.574219 L 835.078125 510.859375 C 834.5 514.492188 832.996094 523.957031 833.976562 526.398438 Z M 833.976562 526.398438 " fill-opacity="1" fill-rule="nonzero"/><path fill="#e10c49" d="M 837.707031 669.976562 C 791.042969 669.976562 764.019531 651.710938 764.019531 558.394531 C 764.019531 531.351562 765.316406 513.667969 768.332031 499.304688 C 771.941406 482.144531 782.648438 467.0625 797.699219 457.929688 C 810.195312 450.34375 823.882812 449.34375 835.9375 448.445312 C 842.089844 447.992188 847.117188 447.78125 851.761719 447.78125 C 861.980469 447.78125 870.757812 448.851562 878.625 451.0625 C 904 458.210938 929.675781 481.355469 929.675781 511.769531 C 929.675781 528.894531 917.496094 539.691406 905.632812 546.121094 C 923.242188 547.734375 955.558594 556.410156 955.558594 598.242188 C 955.558594 644.496094 913.710938 669.976562 837.707031 669.976562 Z M 831.765625 612.445312 C 832.3125 612.570312 833.378906 612.746094 835.167969 612.746094 C 844.050781 612.746094 863.03125 608.269531 864.976562 594.394531 C 865.464844 590.863281 864.503906 587.757812 862.03125 584.894531 C 856.863281 578.941406 846.46875 575.816406 838.882812 575.816406 C 838.128906 575.816406 837.394531 575.851562 836.691406 575.902344 C 834.851562 576.0625 833.34375 577.464844 833.0625 579.308594 C 829.699219 600.347656 830.417969 610.515625 831.765625 612.445312 Z M 842.316406 504.816406 C 840.441406 504.816406 838.460938 504.886719 836.445312 505.027344 C 834.203125 505.167969 832.378906 506.835938 832.03125 509.050781 L 831.820312 510.332031 C 830.75 516.96875 829.15625 526.980469 831.835938 529 C 832.503906 529.488281 834.132812 530.035156 836.726562 530.035156 C 844.980469 530.035156 857.773438 524.871094 860.382812 513.40625 C 860.925781 510.980469 860.261719 509.785156 859.71875 509.101562 C 857.546875 506.378906 851.21875 504.816406 842.316406 504.816406 Z M 842.316406 504.816406 " fill-opacity="1" fill-rule="nonzero"/><path fill="#eb104f" d="M 892.367188 549.332031 C 891.839844 549.367188 891.683594 548.648438 892.171875 548.472656 C 905.699219 543.679688 926.363281 532.933594 926.363281 511.789062 C 926.363281 484.09375 903.210938 461.441406 877.734375 454.261719 C 864.238281 450.464844 850.027344 450.730469 836.183594 451.75 C 823.269531 452.695312 810.808594 453.839844 799.402344 460.757812 C 785.242188 469.363281 774.972656 483.726562 771.554688 499.96875 C 768.4375 514.828125 767.3125 533.214844 767.3125 558.378906 C 767.3125 653.90625 796.125 666.65625 837.707031 666.65625 C 879.292969 666.65625 952.261719 658.808594 952.261719 598.257812 C 952.261719 553.320312 912.605469 547.753906 892.367188 549.332031 Z M 828.769531 508.523438 C 829.367188 504.78125 832.449219 501.953125 836.21875 501.707031 C 846.769531 501.007812 866.5 501.375 863.589844 514.125 C 859.664062 531.421875 836.132812 536.355469 829.855469 531.632812 C 825.390625 528.277344 827.316406 517.742188 828.769531 508.523438 Z M 868.253906 594.851562 C 865.640625 613.464844 837.902344 617.644531 830.59375 615.554688 C 824.828125 613.90625 828.140625 589.25 829.804688 578.78125 C 830.332031 575.445312 833.0625 572.898438 836.410156 572.601562 C 848.886719 571.496094 870.460938 579.167969 868.253906 594.851562 Z M 868.253906 594.851562 " fill-opacity="1" fill-rule="nonzero"/><path fill="#ff5082" d="M 790.550781 610.304688 C 787.292969 610.375 784.558594 606.652344 784.433594 602 C 784.332031 597.328125 786.886719 593.480469 790.148438 593.410156 C 793.40625 593.339844 796.140625 597.0625 796.265625 601.71875 C 796.386719 606.386719 793.828125 610.234375 790.550781 610.304688 Z M 780.667969 545.3125 C 780.667969 567.632812 785.011719 585.71875 790.359375 585.71875 C 795.71875 585.71875 800.050781 567.632812 800.050781 545.3125 C 800.050781 522.992188 795.703125 504.90625 790.359375 504.90625 C 784.996094 504.921875 780.667969 523.011719 780.667969 545.3125 Z M 780.667969 545.3125 " fill-opacity="1" fill-rule="nonzero"/></svg>